<svg width="24" height="25" viewBox="0 0 24 25" fill="none" xmlns="http://www.w3.org/2000/svg">
<g id="vuesax/outline/archive-minus">
<g id="archive-minus">
<path id="Vector" d="M14.5 11.9H9.5C9.09 11.9 8.75 11.56 8.75 11.15C8.75 10.74 9.09 10.4 9.5 10.4H14.5C14.91 10.4 15.25 10.74 15.25 11.15C15.25 11.56 14.91 11.9 14.5 11.9Z" fill="white"/>
<path id="Vector_2" d="M4.93006 23.25C4.51006 23.25 4.12006 23.15 3.77006 22.95C3.00006 22.5 2.56006 21.59 2.56006 20.46V6.36C2.56006 3.82 4.63006 1.75 7.17006 1.75H16.8201C19.3601 1.75 21.4301 3.82 21.4301 6.36V20.45C21.4301 21.58 20.9901 22.49 20.2201 22.94C19.4501 23.39 18.4401 23.34 17.4501 22.79L12.5701 20.08C12.2801 19.92 11.7101 19.92 11.4201 20.08L6.54006 22.79C6.00006 23.09 5.45006 23.25 4.93006 23.25ZM7.18006 3.25C5.47006 3.25 4.07006 4.65 4.07006 6.36V20.45C4.07006 21.04 4.24006 21.48 4.54006 21.65C4.84006 21.83 5.31006 21.77 5.82006 21.48L10.7001 18.77C11.4401 18.36 12.5601 18.36 13.3001 18.77L18.1801 21.48C18.6901 21.77 19.1601 21.83 19.4601 21.65C19.7601 21.47 19.9301 21.03 19.9301 20.45V6.36C19.9301 4.65 18.5301 3.25 16.8201 3.25H7.18006Z" fill="white"/>
</g>
</g>
</svg>
