<svg width="154" height="46" viewBox="0 0 154 46" fill="none" xmlns="http://www.w3.org/2000/svg">
<rect x="0.5" y="0.5" width="153" height="45" rx="7.5" fill="white"/>
<rect x="0.5" y="0.5" width="153" height="45" rx="7.5" stroke="#D1D5DB"/>
<circle cx="42.5" cy="23" r="8.75" fill="url(#paint0_linear_61_1144)"/>
<path d="M45.7586 25.676L46.1472 23.2063H43.7158V21.6044C43.7158 20.9286 44.0548 20.2694 45.1438 20.2694H46.25V18.1669C46.25 18.1669 45.2466 18 44.2877 18C42.2843 18 40.976 19.1831 40.976 21.324V23.2063H38.75V25.676H40.976V31.6466C41.4229 31.715 41.8801 31.75 42.3459 31.75C42.8117 31.75 43.2689 31.715 43.7158 31.6466V25.676H45.7586Z" fill="white"/>
<path d="M63.303 28V23.8711H67.5413V22.5791H63.303V19.4551H67.9309V18.1357H61.7717V28H63.303ZM71.318 26.9541C70.525 26.9541 70.0055 26.5439 70.0055 25.915C70.0055 25.2998 70.5045 24.9102 71.3863 24.8486L73.1568 24.7393V25.3066C73.1568 26.2432 72.3502 26.9541 71.318 26.9541ZM70.9078 28.123C71.8512 28.123 72.7604 27.6172 73.1773 26.8174H73.2115V28H74.6266V23.0439C74.6266 21.6016 73.5123 20.6787 71.7691 20.6787C69.9918 20.6787 68.8844 21.6357 68.8023 22.9346H70.1969C70.3268 22.292 70.86 21.8818 71.7145 21.8818C72.6168 21.8818 73.1568 22.3604 73.1568 23.1602V23.7139L71.1881 23.8301C69.4791 23.9258 68.5152 24.6982 68.5152 25.9561C68.5152 27.248 69.4996 28.123 70.9078 28.123ZM82.375 23.2832C82.2451 21.8682 81.1171 20.6787 79.2646 20.6787C77.2207 20.6787 75.8808 22.1211 75.8808 24.4043C75.8808 26.7285 77.2207 28.1367 79.2783 28.1367C81.0078 28.1367 82.2314 27.0977 82.3886 25.5664H80.9668C80.7959 26.4004 80.2011 26.8994 79.292 26.8994C78.1435 26.8994 77.3847 25.9834 77.3847 24.4043C77.3847 22.8594 78.1367 21.9092 79.2783 21.9092C80.2421 21.9092 80.8164 22.5176 80.9668 23.2832H82.375ZM86.5823 21.8682C87.6146 21.8682 88.3118 22.6406 88.346 23.7412H84.7503C84.8255 22.6543 85.5501 21.8682 86.5823 21.8682ZM88.3392 25.8877C88.1409 26.5166 87.5189 26.9404 86.678 26.9404C85.4954 26.9404 84.7435 26.1133 84.7435 24.8623V24.7734H89.8226V24.2676C89.8226 22.0869 88.5784 20.6787 86.5823 20.6787C84.5521 20.6787 83.2532 22.1826 83.2532 24.4385C83.2532 26.708 84.5316 28.1367 86.6439 28.1367C88.2913 28.1367 89.5355 27.2002 89.7405 25.8877H88.3392ZM94.9391 28.123C96.7643 28.123 97.9401 26.6875 97.9401 24.4043C97.9401 22.1279 96.7575 20.6924 94.946 20.6924C93.9274 20.6924 93.1071 21.1982 92.6764 22.0322H92.6423V18.1357H91.1657V28H92.6012V26.7764H92.6286C93.0729 27.6104 93.8864 28.123 94.9391 28.123ZM94.5427 21.9365C95.7048 21.9365 96.4225 22.8936 96.4225 24.4043C96.4225 25.9287 95.7048 26.8721 94.5427 26.8721C93.4216 26.8721 92.6354 25.9014 92.6354 24.4043C92.6354 22.9209 93.4216 21.9365 94.5427 21.9365ZM102.325 28.1367C104.383 28.1367 105.736 26.7217 105.736 24.4043C105.736 22.0938 104.376 20.6787 102.325 20.6787C100.274 20.6787 98.9141 22.0938 98.9141 24.4043C98.9141 26.7217 100.268 28.1367 102.325 28.1367ZM102.325 26.9199C101.17 26.9199 100.418 26.0039 100.418 24.4043C100.418 22.8115 101.17 21.8955 102.325 21.8955C103.481 21.8955 104.232 22.8115 104.232 24.4043C104.232 26.0039 103.487 26.9199 102.325 26.9199ZM110.108 28.1367C112.165 28.1367 113.519 26.7217 113.519 24.4043C113.519 22.0938 112.159 20.6787 110.108 20.6787C108.057 20.6787 106.697 22.0938 106.697 24.4043C106.697 26.7217 108.05 28.1367 110.108 28.1367ZM110.108 26.9199C108.953 26.9199 108.201 26.0039 108.201 24.4043C108.201 22.8115 108.953 21.8955 110.108 21.8955C111.263 21.8955 112.015 22.8115 112.015 24.4043C112.015 26.0039 111.27 26.9199 110.108 26.9199ZM116.345 23.8916H116.332V18.1357H114.855V28H116.332V25.416L116.947 24.8076L119.387 28H121.103L118.007 23.9053L120.987 20.8086H119.251L116.345 23.8916Z" fill="#363F5E"/>
<defs>
<linearGradient id="paint0_linear_61_1144" x1="42.5" y1="14.25" x2="42.5" y2="31.6981" gradientUnits="userSpaceOnUse">
<stop stop-color="#18ACFE"/>
<stop offset="1" stop-color="#0163E0"/>
</linearGradient>
</defs>
</svg>
