<svg width="154" height="46" viewBox="0 0 154 46" fill="none" xmlns="http://www.w3.org/2000/svg">
<rect x="0.5" y="0.5" width="153" height="45" rx="7.5" fill="white"/>
<rect x="0.5" y="0.5" width="153" height="45" rx="7.5" stroke="#D1D5DB"/>
<g clip-path="url(#clip0_61_1143)">
<path d="M46.0107 21.51C46.3226 20.5663 46.9246 19.7452 47.7307 19.1639C48.5369 18.5825 49.5061 18.2706 50.5 18.2727C51.6267 18.2727 52.6453 18.6727 53.4453 19.3273L55.7733 17C54.3547 15.7633 52.5367 15 50.5 15C47.3467 15 44.632 16.7987 43.3267 19.4333L46.0107 21.51Z" fill="#EA4335"/>
<path d="M53.1933 27.0086C52.4667 27.4773 51.544 27.7273 50.5 27.7273C49.51 27.7293 48.5445 27.4199 47.7402 26.8429C46.9358 26.2658 46.3333 25.4504 46.018 24.512L43.3247 26.5566C43.9855 27.8942 45.0082 29.0196 46.2766 29.805C47.5449 30.5904 49.0081 31.0044 50.5 31C52.4553 31 54.3233 30.3046 55.7227 29L53.194 27.0086H53.1933Z" fill="#34A853"/>
<path d="M55.7227 29C57.186 27.6346 58.136 25.6026 58.136 23C58.136 22.5266 58.0633 22.018 57.9547 21.5453H50.5V24.6366H54.7907C54.5793 25.676 54.0107 26.4806 53.194 27.0086L55.7227 29Z" fill="#4A90E2"/>
<path d="M46.018 24.512C45.8549 24.0246 45.772 23.514 45.7727 23C45.7727 22.4787 45.856 21.978 46.0107 21.51L43.3267 19.4333C42.7776 20.5418 42.4945 21.763 42.5 23C42.5 24.28 42.7967 25.4867 43.3247 26.5567L46.018 24.512Z" fill="#FBBC05"/>
</g>
<path d="M76.2359 23.8984V22.8936H72.1754V24.1309H74.7252V24.3018C74.7047 25.7988 73.5973 26.8242 71.9977 26.8242C70.1178 26.8242 68.9488 25.3682 68.9488 23.0098C68.9488 20.6924 70.0836 19.3115 71.9703 19.3115C73.2555 19.3115 74.2193 20.0156 74.5885 21.2393H76.1607C75.8189 19.2705 74.1578 17.9717 71.9635 17.9717C69.1539 17.9717 67.3834 19.9131 67.3834 23.0234C67.3834 26.1885 69.1607 28.1641 71.984 28.1641C74.6568 28.1641 76.2359 26.5713 76.2359 23.8984ZM80.7851 28.1367C82.8427 28.1367 84.1962 26.7217 84.1962 24.4043C84.1962 22.0938 82.8359 20.6787 80.7851 20.6787C78.7343 20.6787 77.374 22.0938 77.374 24.4043C77.374 26.7217 78.7275 28.1367 80.7851 28.1367ZM80.7851 26.9199C79.6298 26.9199 78.8779 26.0039 78.8779 24.4043C78.8779 22.8115 79.6298 21.8955 80.7851 21.8955C81.9404 21.8955 82.6923 22.8115 82.6923 24.4043C82.6923 26.0039 81.9472 26.9199 80.7851 26.9199ZM88.5677 28.1367C90.6253 28.1367 91.9788 26.7217 91.9788 24.4043C91.9788 22.0938 90.6185 20.6787 88.5677 20.6787C86.5169 20.6787 85.1566 22.0938 85.1566 24.4043C85.1566 26.7217 86.5101 28.1367 88.5677 28.1367ZM88.5677 26.9199C87.4124 26.9199 86.6605 26.0039 86.6605 24.4043C86.6605 22.8115 87.4124 21.8955 88.5677 21.8955C89.723 21.8955 90.4749 22.8115 90.4749 24.4043C90.4749 26.0039 89.7298 26.9199 88.5677 26.9199ZM96.3229 26.8037C95.1882 26.8037 94.4499 25.8877 94.4499 24.3838C94.4499 22.8867 95.1882 21.9365 96.3229 21.9365C97.4782 21.9365 98.237 22.9072 98.237 24.3838C98.237 25.8672 97.4782 26.8037 96.3229 26.8037ZM96.3366 30.707C98.3874 30.707 99.7136 29.5859 99.7136 27.8701V20.8086H98.278V22.0391H98.2507C97.8132 21.2051 96.9792 20.6924 95.9606 20.6924C94.1149 20.6924 92.9391 22.1143 92.9391 24.377C92.9391 26.6191 94.1218 28.0273 95.9264 28.0273C96.9518 28.0273 97.7995 27.5146 98.2028 26.7354H98.2302V27.918C98.2302 28.9023 97.5466 29.5586 96.3913 29.5586C95.5505 29.5586 94.8942 29.1621 94.6823 28.5605H93.1989C93.3835 29.8047 94.6413 30.707 96.3366 30.707ZM101.371 28H102.848V18.1357H101.371V28ZM107.513 21.8682C108.545 21.8682 109.243 22.6406 109.277 23.7412H105.681C105.756 22.6543 106.481 21.8682 107.513 21.8682ZM109.27 25.8877C109.072 26.5166 108.45 26.9404 107.609 26.9404C106.426 26.9404 105.674 26.1133 105.674 24.8623V24.7734H110.753V24.2676C110.753 22.0869 109.509 20.6787 107.513 20.6787C105.483 20.6787 104.184 22.1826 104.184 24.4385C104.184 26.708 105.462 28.1367 107.575 28.1367C109.222 28.1367 110.466 27.2002 110.671 25.8877H109.27Z" fill="#363F5E"/>
<defs>
<clipPath id="clip0_61_1143">
<rect width="16" height="16" fill="white" transform="translate(42.5 15)"/>
</clipPath>
</defs>
</svg>
