<svg width="24" height="24" viewBox="0 0 24 24" fill="none" xmlns="http://www.w3.org/2000/svg">
<path d="M8.99996 17.75C8.88996 17.75 8.76996 17.72 8.66996 17.67C7.89996 17.28 7.23996 16.7 6.75996 15.98C6.35996 15.38 6.35996 14.61 6.75996 14.01C7.23996 13.29 7.89996 12.71 8.66996 12.33C9.03996 12.14 9.48996 12.3 9.67996 12.67C9.86996 13.04 9.71996 13.49 9.33996 13.68C8.79996 13.95 8.33996 14.36 8.00996 14.86C7.94996 14.95 7.94996 15.07 8.00996 15.17C8.33996 15.67 8.79996 16.08 9.33996 16.35C9.70996 16.54 9.85996 16.99 9.67996 17.36C9.53996 17.6 9.26996 17.75 8.99996 17.75Z" fill="#292D32"/>
<path d="M15.21 17.75C14.93 17.75 14.67 17.6 14.54 17.34C14.35 16.97 14.5 16.52 14.88 16.33C15.42 16.06 15.88 15.65 16.21 15.15C16.27 15.06 16.27 14.94 16.21 14.84C15.88 14.34 15.42 13.93 14.88 13.66C14.51 13.47 14.36 13.02 14.54 12.65C14.73 12.28 15.18 12.13 15.55 12.31C16.32 12.7 16.98 13.28 17.46 14C17.86 14.6 17.86 15.37 17.46 15.97C16.98 16.69 16.32 17.27 15.55 17.65C15.43 17.72 15.32 17.75 15.21 17.75Z" fill="#292D32"/>
<path d="M15 22.75H9C3.57 22.75 1.25 20.43 1.25 15V9C1.25 3.57 3.57 1.25 9 1.25H15C20.43 1.25 22.75 3.57 22.75 9V15C22.75 20.43 20.43 22.75 15 22.75ZM9 2.75C4.39 2.75 2.75 4.39 2.75 9V15C2.75 19.61 4.39 21.25 9 21.25H15C19.61 21.25 21.25 19.61 21.25 15V9C21.25 4.39 19.61 2.75 15 2.75H9Z" fill="#292D32"/>
<path d="M2.22998 8.76C1.81998 8.76 1.47998 8.42 1.47998 8.01C1.47998 7.6 1.80998 7.26 2.22998 7.26L21.45 7.25C21.86 7.25 22.2 7.59 22.2 8C22.2 8.41 21.87 8.75 21.45 8.75L2.22998 8.76Z" fill="#292D32"/>
</svg>
