<svg width="57" height="56" viewBox="0 0 57 56" fill="none" xmlns="http://www.w3.org/2000/svg">
<rect x="0.5" width="56" height="56" rx="28" fill="#D6E4FF"/>
<path d="M39.8335 25.5866H35.9802C32.8202 25.5866 30.2468 23.0133 30.2468 19.8533V16C30.2468 15.2666 29.6468 14.6666 28.9135 14.6666H23.2602C19.1535 14.6666 15.8335 17.3333 15.8335 22.0933V33.9066C15.8335 38.6666 19.1535 41.3333 23.2602 41.3333H33.7402C37.8468 41.3333 41.1668 38.6666 41.1668 33.9066V26.92C41.1668 26.1866 40.5668 25.5866 39.8335 25.5866ZM27.8735 30.04C27.6735 30.24 27.4202 30.3333 27.1668 30.3333C26.9135 30.3333 26.6602 30.24 26.4602 30.04L25.5002 29.08V34.6666C25.5002 35.2133 25.0468 35.6666 24.5002 35.6666C23.9535 35.6666 23.5002 35.2133 23.5002 34.6666V29.08L22.5402 30.04C22.1535 30.4266 21.5135 30.4266 21.1268 30.04C20.7402 29.6533 20.7402 29.0133 21.1268 28.6266L23.7935 25.96C23.8868 25.88 23.9802 25.8133 24.0868 25.76C24.1135 25.7466 24.1535 25.7333 24.1802 25.72C24.2602 25.6933 24.3402 25.68 24.4335 25.6666C24.4735 25.6666 24.5002 25.6666 24.5402 25.6666C24.6468 25.6666 24.7535 25.6933 24.8602 25.7333C24.8735 25.7333 24.8735 25.7333 24.8868 25.7333C24.9935 25.7733 25.1002 25.8533 25.1802 25.9333C25.1935 25.9466 25.2068 25.9466 25.2068 25.96L27.8735 28.6266C28.2602 29.0133 28.2602 29.6533 27.8735 30.04Z" fill="#3366FF"/>
<path d="M35.7399 23.7467C37.0066 23.76 38.7666 23.76 40.2732 23.76C41.0332 23.76 41.4332 22.8667 40.8999 22.3334C38.9799 20.4 35.5399 16.92 33.5666 14.9467C33.0199 14.4 32.0732 14.7734 32.0732 15.5334V20.1867C32.0732 22.1334 33.7266 23.7467 35.7399 23.7467Z" fill="#3366FF"/>
</svg>
