<svg width="324" height="82" viewBox="0 0 324 82" fill="none" xmlns="http://www.w3.org/2000/svg">
<path d="M12.308 26V19.0742L18.2728 9.08984H15.3666L11.0541 16.5547H10.972L6.65953 9.08984H3.72984L9.68297 19.0742V26H12.308ZM23.0128 26.2344C26.5402 26.2344 28.8605 23.8086 28.8605 19.8359C28.8605 15.875 26.5284 13.4492 23.0128 13.4492C19.4972 13.4492 17.1652 15.875 17.1652 19.8359C17.1652 23.8086 19.4855 26.2344 23.0128 26.2344ZM23.0128 24.1484C21.0323 24.1484 19.7433 22.5781 19.7433 19.8359C19.7433 17.1055 21.0323 15.5352 23.0128 15.5352C24.9933 15.5352 26.2823 17.1055 26.2823 19.8359C26.2823 22.5781 25.005 24.1484 23.0128 24.1484ZM41.6278 13.6719H39.0966V20.8555C39.0966 22.7773 37.995 24.043 36.1669 24.043C34.4208 24.043 33.5302 23.0352 33.5302 21.1602V13.6719H30.9989V21.6523C30.9989 24.4766 32.6395 26.2227 35.3231 26.2227C37.2098 26.2227 38.4637 25.3906 39.1434 23.9141H39.202V26H41.6278V13.6719ZM44.3756 26H46.9069V18.6172C46.9069 16.8711 47.9147 15.7812 49.5436 15.7812C50.0358 15.7812 50.4811 15.8398 50.6803 15.9219V13.5664C50.4928 13.5312 50.1764 13.4727 49.8131 13.4727C48.36 13.4727 47.2584 14.3281 46.8483 15.7695H46.7897V13.6719H44.3756V26ZM61.9181 24.207C60.5588 24.207 59.6681 23.5039 59.6681 22.4258C59.6681 21.3711 60.5236 20.7031 62.0353 20.5977L65.0705 20.4102V21.3828C65.0705 22.9883 63.6877 24.207 61.9181 24.207ZM61.215 26.2109C62.8322 26.2109 64.3908 25.3438 65.1056 23.9727H65.1642V26H67.59V17.5039C67.59 15.0312 65.6798 13.4492 62.6916 13.4492C59.6447 13.4492 57.7463 15.0898 57.6056 17.3164H59.9963C60.2189 16.2148 61.133 15.5117 62.5978 15.5117C64.1447 15.5117 65.0705 16.332 65.0705 17.7031V18.6523L61.6955 18.8516C58.7658 19.0156 57.1134 20.3398 57.1134 22.4961C57.1134 24.7109 58.8009 26.2109 61.215 26.2109ZM80.873 17.9141C80.6503 15.4883 78.7167 13.4492 75.5409 13.4492C72.037 13.4492 69.7402 15.9219 69.7402 19.8359C69.7402 23.8203 72.037 26.2344 75.5644 26.2344C78.5292 26.2344 80.6269 24.4531 80.8964 21.8281H78.4589C78.1659 23.2578 77.1464 24.1133 75.5878 24.1133C73.6191 24.1133 72.3183 22.543 72.3183 19.8359C72.3183 17.1875 73.6073 15.5586 75.5644 15.5586C77.2167 15.5586 78.2011 16.6016 78.4589 17.9141H80.873ZM93.5114 17.9141C93.2887 15.4883 91.3552 13.4492 88.1794 13.4492C84.6755 13.4492 82.3786 15.9219 82.3786 19.8359C82.3786 23.8203 84.6755 26.2344 88.2028 26.2344C91.1677 26.2344 93.2653 24.4531 93.5348 21.8281H91.0973C90.8044 23.2578 89.7848 24.1133 88.2262 24.1133C86.2575 24.1133 84.9567 22.543 84.9567 19.8359C84.9567 17.1875 86.2458 15.5586 88.2028 15.5586C89.8552 15.5586 90.8395 16.6016 91.0973 17.9141H93.5114ZM100.865 26.2344C104.392 26.2344 106.712 23.8086 106.712 19.8359C106.712 15.875 104.38 13.4492 100.865 13.4492C97.3491 13.4492 95.017 15.875 95.017 19.8359C95.017 23.8086 97.3373 26.2344 100.865 26.2344ZM100.865 24.1484C98.8842 24.1484 97.5952 22.5781 97.5952 19.8359C97.5952 17.1055 98.8842 15.5352 100.865 15.5352C102.845 15.5352 104.134 17.1055 104.134 19.8359C104.134 22.5781 102.857 24.1484 100.865 24.1484ZM119.48 13.6719H116.948V20.8555C116.948 22.7773 115.847 24.043 114.019 24.043C112.273 24.043 111.382 23.0352 111.382 21.1602V13.6719H108.851V21.6523C108.851 24.4766 110.491 26.2227 113.175 26.2227C115.062 26.2227 116.316 25.3906 116.995 23.9141H117.054V26H119.48V13.6719ZM122.228 26H124.759V18.8164C124.759 16.9062 125.907 15.6406 127.688 15.6406C129.446 15.6406 130.313 16.6602 130.313 18.5117V26H132.856V18.0195C132.856 15.1953 131.298 13.4609 128.579 13.4609C126.681 13.4609 125.368 14.3281 124.7 15.7344H124.642V13.6719H122.228V26ZM136.284 10.7539V13.6719H134.491V15.6758H136.284V22.7539C136.284 25.1328 137.257 26.082 139.753 26.082C140.315 26.082 140.878 26.0352 141.159 25.9648V23.9609C140.995 23.9961 140.585 24.0195 140.327 24.0195C139.296 24.0195 138.827 23.5391 138.827 22.4727V15.6758H141.171V13.6719H138.827V10.7539H136.284ZM148.705 26H151.237V18.875C151.237 16.9297 152.385 15.6406 154.26 15.6406C156.041 15.6406 156.955 16.7305 156.955 18.5469V26H159.498V18.0547C159.498 15.2656 157.881 13.4609 155.174 13.4609C153.299 13.4609 151.951 14.293 151.272 15.7344H151.213V9.08984H148.705V26ZM166.5 24.207C165.141 24.207 164.25 23.5039 164.25 22.4258C164.25 21.3711 165.105 20.7031 166.617 20.5977L169.652 20.4102V21.3828C169.652 22.9883 168.27 24.207 166.5 24.207ZM165.797 26.2109C167.414 26.2109 168.973 25.3438 169.688 23.9727H169.746V26H172.172V17.5039C172.172 15.0312 170.262 13.4492 167.273 13.4492C164.227 13.4492 162.328 15.0898 162.188 17.3164H164.578C164.801 16.2148 165.715 15.5117 167.18 15.5117C168.727 15.5117 169.652 16.332 169.652 17.7031V18.6523L166.277 18.8516C163.348 19.0156 161.695 20.3398 161.695 22.4961C161.695 24.7109 163.383 26.2109 165.797 26.2109ZM174.65 17.1641C174.65 18.8867 175.775 20.0469 178.002 20.5859L180.205 21.125C181.494 21.4531 181.963 21.8867 181.963 22.6719C181.963 23.668 181.025 24.3008 179.502 24.3008C177.955 24.3008 177.041 23.6445 176.842 22.4609H174.334C174.533 24.7227 176.467 26.2344 179.385 26.2344C182.408 26.2344 184.506 24.6875 184.506 22.4375C184.506 20.6211 183.568 19.6836 181.084 19.0859L179.01 18.6055C177.732 18.2891 177.123 17.7734 177.123 17.0117C177.123 16.0391 178.037 15.3711 179.408 15.3711C180.826 15.3711 181.728 16.0625 181.845 17.1758H184.224C184.142 14.9844 182.22 13.4492 179.478 13.4492C176.595 13.4492 174.65 14.9609 174.65 17.1641ZM198.392 26.2109C201.521 26.2109 203.536 23.75 203.536 19.8359C203.536 15.9336 201.509 13.4727 198.404 13.4727C196.658 13.4727 195.251 14.3398 194.513 15.7695H194.454V9.08984H191.923V26H194.384V23.9023H194.431C195.193 25.332 196.587 26.2109 198.392 26.2109ZM197.712 15.6055C199.704 15.6055 200.935 17.2461 200.935 19.8359C200.935 22.4492 199.704 24.0664 197.712 24.0664C195.79 24.0664 194.443 22.4023 194.443 19.8359C194.443 17.293 195.79 15.6055 197.712 15.6055ZM210.913 15.4883C212.683 15.4883 213.878 16.8125 213.937 18.6992H207.773C207.901 16.8359 209.144 15.4883 210.913 15.4883ZM213.925 22.3789C213.585 23.457 212.519 24.1836 211.077 24.1836C209.05 24.1836 207.761 22.7656 207.761 20.6211V20.4688H216.468V19.6016C216.468 15.8633 214.335 13.4492 210.913 13.4492C207.433 13.4492 205.206 16.0273 205.206 19.8945C205.206 23.7852 207.398 26.2344 211.019 26.2344C213.843 26.2344 215.976 24.6289 216.327 22.3789H213.925ZM223.833 15.4883C225.602 15.4883 226.798 16.8125 226.856 18.6992H220.692C220.821 16.8359 222.063 15.4883 223.833 15.4883ZM226.845 22.3789C226.505 23.457 225.438 24.1836 223.997 24.1836C221.97 24.1836 220.68 22.7656 220.68 20.6211V20.4688H229.387V19.6016C229.387 15.8633 227.255 13.4492 223.833 13.4492C220.352 13.4492 218.126 16.0273 218.126 19.8945C218.126 23.7852 220.317 26.2344 223.938 26.2344C226.762 26.2344 228.895 24.6289 229.247 22.3789H226.845ZM231.596 26H234.128V18.8164C234.128 16.9062 235.276 15.6406 237.057 15.6406C238.815 15.6406 239.682 16.6602 239.682 18.5117V26H242.225V18.0195C242.225 15.1953 240.667 13.4609 237.948 13.4609C236.049 13.4609 234.737 14.3281 234.069 15.7344H234.01V13.6719H231.596V26ZM249.807 17.1641C249.807 18.8867 250.932 20.0469 253.158 20.5859L255.361 21.125C256.65 21.4531 257.119 21.8867 257.119 22.6719C257.119 23.668 256.182 24.3008 254.658 24.3008C253.111 24.3008 252.197 23.6445 251.998 22.4609H249.49C249.69 24.7227 251.623 26.2344 254.541 26.2344C257.565 26.2344 259.662 24.6875 259.662 22.4375C259.662 20.6211 258.725 19.6836 256.24 19.0859L254.166 18.6055C252.889 18.2891 252.279 17.7734 252.279 17.0117C252.279 16.0391 253.193 15.3711 254.565 15.3711C255.982 15.3711 256.885 16.0625 257.002 17.1758H259.381C259.299 14.9844 257.377 13.4492 254.635 13.4492C251.752 13.4492 249.807 14.9609 249.807 17.1641ZM267.027 15.4883C268.797 15.4883 269.992 16.8125 270.051 18.6992H263.887C264.015 16.8359 265.258 15.4883 267.027 15.4883ZM270.039 22.3789C269.699 23.457 268.633 24.1836 267.191 24.1836C265.164 24.1836 263.875 22.7656 263.875 20.6211V20.4688H272.582V19.6016C272.582 15.8633 270.449 13.4492 267.027 13.4492C263.547 13.4492 261.32 16.0273 261.32 19.8945C261.32 23.7852 263.512 26.2344 267.133 26.2344C269.957 26.2344 272.09 24.6289 272.441 22.3789H270.039ZM275.529 10.7539V13.6719H273.736V15.6758H275.529V22.7539C275.529 25.1328 276.502 26.082 278.998 26.082C279.56 26.082 280.123 26.0352 280.404 25.9648V23.9609C280.24 23.9961 279.83 24.0195 279.572 24.0195C278.541 24.0195 278.072 23.5391 278.072 22.4727V15.6758H280.416V13.6719H278.072V10.7539H275.529ZM298.427 13.6719H295.896V20.8555C295.896 22.7773 294.794 24.043 292.966 24.043C291.22 24.043 290.329 23.0352 290.329 21.1602V13.6719H287.798V21.6523C287.798 24.4766 289.439 26.2227 292.122 26.2227C294.009 26.2227 295.263 25.3906 295.943 23.9141H296.001V26H298.427V13.6719ZM307.597 13.4727C305.815 13.4727 304.397 14.375 303.671 15.793H303.624V13.6719H301.175V30.0781H303.706V23.9727H303.765C304.468 25.3438 305.874 26.2109 307.643 26.2109C310.737 26.2109 312.788 23.7383 312.788 19.8359C312.788 15.9336 310.725 13.4727 307.597 13.4727ZM306.929 24.0664C304.983 24.0664 303.694 22.4023 303.694 19.8359C303.694 17.293 304.995 15.6055 306.929 15.6055C308.932 15.6055 310.186 17.2578 310.186 19.8359C310.186 22.4258 308.932 24.0664 306.929 24.0664ZM315.84 9.08984L316.028 20.3984H318.266L318.454 9.08984H315.84ZM317.141 26.1758C318.02 26.1758 318.688 25.5195 318.688 24.6641C318.688 23.8086 318.02 23.1523 317.141 23.1523C316.286 23.1523 315.606 23.8086 315.606 24.6641C315.606 25.5195 316.286 26.1758 317.141 26.1758Z" fill="#111827"/>
<path d="M35.2475 49.1729H35.3159L37.5922 57H38.7543L41.4409 47.1357H40.1557L38.1801 55.1885H38.1254L35.9037 47.1357H34.6596L32.4379 55.1885H32.3832L30.4077 47.1357H29.1225L31.809 57H32.9711L35.2475 49.1729ZM44.7596 50.7998C45.8807 50.7998 46.6258 51.6475 46.6531 52.8369H42.7908C42.866 51.6543 43.6453 50.7998 44.7596 50.7998ZM46.6258 54.9629C46.4275 55.6328 45.7645 56.0908 44.8621 56.0908C43.5838 56.0908 42.784 55.1953 42.784 53.835V53.7666H47.8836V53.3154C47.8836 51.1621 46.701 49.7676 44.7801 49.7676C42.8182 49.7676 41.5603 51.2646 41.5603 53.4727C41.5603 55.708 42.7977 57.123 44.8348 57.123C46.3865 57.123 47.5896 56.207 47.7947 54.9629H46.6258ZM52.2993 57H53.4888V52.8574C53.4888 51.627 54.2202 50.8203 55.4028 50.8203C56.5171 50.8203 57.0845 51.4971 57.0845 52.625V57H58.2739V52.4062C58.2739 50.8203 57.3306 49.7676 55.772 49.7676C54.6919 49.7676 53.9126 50.2324 53.5161 51.0254H53.4888V47.1357H52.2993V57ZM62.2694 56.1113C61.4149 56.1113 60.8475 55.667 60.8475 54.9902C60.8475 54.3203 61.3944 53.8965 62.3514 53.835L64.2518 53.7188V54.2998C64.2518 55.3252 63.3905 56.1113 62.2694 56.1113ZM62.0028 57.123C62.9598 57.123 63.8622 56.5898 64.286 55.7764H64.3134V57H65.4413V52.085C65.4413 50.6699 64.3885 49.7676 62.7206 49.7676C61.0389 49.7676 59.9862 50.7109 59.9042 51.9414H61.0526C61.203 51.2441 61.7772 50.8135 62.6932 50.8135C63.6776 50.8135 64.2518 51.333 64.2518 52.2012V52.7959L62.2147 52.9121C60.5741 53.0078 59.6376 53.7734 59.6376 54.9902C59.6376 56.2686 60.5878 57.123 62.0028 57.123ZM72.9231 49.8906H71.6858L69.717 55.7354H69.6897L67.7278 49.8906H66.4768L69.095 57H70.3118L72.9231 49.8906ZM76.6451 50.7998C77.7662 50.7998 78.5113 51.6475 78.5387 52.8369H74.6764C74.7516 51.6543 75.5309 50.7998 76.6451 50.7998ZM78.5113 54.9629C78.3131 55.6328 77.65 56.0908 76.7477 56.0908C75.4693 56.0908 74.6695 55.1953 74.6695 53.835V53.7666H79.7691V53.3154C79.7691 51.1621 78.5865 49.7676 76.6656 49.7676C74.7037 49.7676 73.4459 51.2646 73.4459 53.4727C73.4459 55.708 74.6832 57.123 76.7203 57.123C78.2721 57.123 79.4752 56.207 79.6803 54.9629H78.5113ZM90.0296 52.2217C89.8792 50.9434 88.8196 49.7676 87.0423 49.7676C85.0804 49.7676 83.7747 51.2031 83.7747 53.4453C83.7747 55.7354 85.0872 57.123 87.056 57.123C88.6693 57.123 89.8587 56.125 90.0433 54.71H88.8743C88.6693 55.5645 88.0335 56.0771 87.0628 56.0771C85.8323 56.0771 84.9847 55.0996 84.9847 53.4453C84.9847 51.832 85.8187 50.8135 87.0491 50.8135C88.095 50.8135 88.6966 51.4492 88.8675 52.2217H90.0296ZM97.1149 49.8906H95.9255V54.0674C95.9255 55.2773 95.2282 56.0703 94.0729 56.0703C92.9723 56.0703 92.4323 55.4482 92.4323 54.293V49.8906H91.2428V54.5049C91.2428 56.1182 92.152 57.123 93.7038 57.123C94.7975 57.123 95.5358 56.665 95.9596 55.8447H95.987V57H97.1149V49.8906ZM98.6768 51.8525C98.6768 52.8232 99.292 53.4658 100.543 53.7871L101.794 54.1084C102.594 54.3203 102.888 54.5938 102.888 55.0996C102.888 55.7422 102.293 56.1523 101.329 56.1523C100.365 56.1523 99.8047 55.7559 99.6748 55.0176H98.4854C98.6084 56.2754 99.6954 57.123 101.254 57.123C102.915 57.123 104.084 56.248 104.084 55.0107C104.084 53.9648 103.564 53.4453 102.129 53.083L101.028 52.8164C100.222 52.6113 99.8457 52.2832 99.8457 51.791C99.8457 51.1689 100.42 50.7383 101.288 50.7383C102.163 50.7383 102.717 51.1621 102.799 51.8457H103.934C103.879 50.6426 102.799 49.7676 101.329 49.7676C99.7637 49.7676 98.6768 50.6357 98.6768 51.8525ZM105.844 48.1748V49.8906H104.785V50.8682H105.844V55.1543C105.844 56.5215 106.35 57.0547 107.656 57.0547C107.936 57.0547 108.264 57.0342 108.408 57V56.002C108.326 56.0156 108.052 56.0361 107.915 56.0361C107.307 56.0361 107.034 55.7422 107.034 55.0928V50.8682H108.414V49.8906H107.034V48.1748H105.844ZM112.567 57.123C114.529 57.123 115.855 55.708 115.855 53.4453C115.855 51.1758 114.529 49.7676 112.567 49.7676C110.598 49.7676 109.272 51.1758 109.272 53.4453C109.272 55.708 110.598 57.123 112.567 57.123ZM112.567 56.0771C111.309 56.0771 110.482 55.1201 110.482 53.4453C110.482 51.7705 111.309 50.8135 112.567 50.8135C113.825 50.8135 114.645 51.7705 114.645 53.4453C114.645 55.1201 113.825 56.0771 112.567 56.0771ZM117.198 57H118.388V52.543C118.388 51.5586 119.071 50.8203 120.015 50.8203C120.897 50.8203 121.471 51.3809 121.471 52.2354V57H122.66V52.4814C122.66 51.5176 123.323 50.8203 124.267 50.8203C125.203 50.8203 125.743 51.3945 125.743 52.3652V57H126.933V52.0918C126.933 50.6836 126.024 49.7676 124.615 49.7676C123.617 49.7676 122.783 50.2734 122.387 51.1211H122.359C122.052 50.2598 121.334 49.7676 120.363 49.7676C119.406 49.7676 118.682 50.2734 118.347 51.0254H118.319V49.8906H117.198V57ZM128.652 57H129.841V49.8906H128.652V57ZM129.247 48.6943C129.657 48.6943 129.992 48.3594 129.992 47.9561C129.992 47.5459 129.657 47.2178 129.247 47.2178C128.843 47.2178 128.508 47.5459 128.508 47.9561C128.508 48.3594 128.843 48.6943 129.247 48.6943ZM131.437 57H136.742V56.0225H132.811V56.002L136.722 50.7588V49.8906H131.444V50.8682H135.375V50.8887L131.437 56.1523V57ZM140.854 50.7998C141.975 50.7998 142.72 51.6475 142.747 52.8369H138.885C138.96 51.6543 139.739 50.7998 140.854 50.7998ZM142.72 54.9629C142.522 55.6328 141.859 56.0908 140.956 56.0908C139.678 56.0908 138.878 55.1953 138.878 53.835V53.7666H143.978V53.3154C143.978 51.1621 142.795 49.7676 140.874 49.7676C138.912 49.7676 137.654 51.2646 137.654 53.4727C137.654 55.708 138.892 57.123 140.929 57.123C142.481 57.123 143.684 56.207 143.889 54.9629H142.72ZM148.014 57.123C149.04 57.123 149.853 56.6172 150.311 55.7969H150.332V57H151.466V47.1357H150.277V51.0459H150.25C149.826 50.2666 149.005 49.7676 147.987 49.7676C146.196 49.7676 144.972 51.2168 144.972 53.4453C144.972 55.6738 146.203 57.123 148.014 57.123ZM148.24 50.8135C149.463 50.8135 150.284 51.8594 150.284 53.4453C150.284 55.0381 149.463 56.0771 148.24 56.0771C146.982 56.0771 146.189 55.0586 146.189 53.4453C146.189 51.8389 146.982 50.8135 148.24 50.8135ZM156.607 57H157.796V50.8682H159.245V49.8906H157.789V49.1045C157.789 48.4004 158.097 48.0586 158.74 48.0586C158.938 48.0586 159.136 48.0791 159.28 48.0996V47.1357C159.109 47.1084 158.822 47.0811 158.555 47.0811C157.242 47.0811 156.607 47.7305 156.607 49.0977V49.8906H155.616V50.8682H156.607V57ZM163.125 50.7998C164.246 50.7998 164.991 51.6475 165.018 52.8369H161.156C161.231 51.6543 162.01 50.7998 163.125 50.7998ZM164.991 54.9629C164.793 55.6328 164.13 56.0908 163.227 56.0908C161.949 56.0908 161.149 55.1953 161.149 53.835V53.7666H166.249V53.3154C166.249 51.1621 165.066 49.7676 163.145 49.7676C161.183 49.7676 159.925 51.2646 159.925 53.4727C159.925 55.708 161.163 57.123 163.2 57.123C164.752 57.123 165.955 56.207 166.16 54.9629H164.991ZM170.442 50.7998C171.563 50.7998 172.309 51.6475 172.336 52.8369H168.474C168.549 51.6543 169.328 50.7998 170.442 50.7998ZM172.309 54.9629C172.11 55.6328 171.447 56.0908 170.545 56.0908C169.267 56.0908 168.467 55.1953 168.467 53.835V53.7666H173.566V53.3154C173.566 51.1621 172.384 49.7676 170.463 49.7676C168.501 49.7676 167.243 51.2646 167.243 53.4727C167.243 55.708 168.48 57.123 170.518 57.123C172.069 57.123 173.272 56.207 173.478 54.9629H172.309ZM177.603 57.123C178.628 57.123 179.442 56.6172 179.9 55.7969H179.92V57H181.055V47.1357H179.866V51.0459H179.838C179.414 50.2666 178.594 49.7676 177.576 49.7676C175.785 49.7676 174.561 51.2168 174.561 53.4453C174.561 55.6738 175.791 57.123 177.603 57.123ZM177.828 50.8135C179.052 50.8135 179.872 51.8594 179.872 53.4453C179.872 55.0381 179.052 56.0771 177.828 56.0771C176.571 56.0771 175.778 55.0586 175.778 53.4453C175.778 51.8389 176.571 50.8135 177.828 50.8135ZM182.678 51.8525C182.678 52.8232 183.294 53.4658 184.545 53.7871L185.796 54.1084C186.595 54.3203 186.889 54.5938 186.889 55.0996C186.889 55.7422 186.295 56.1523 185.331 56.1523C184.367 56.1523 183.806 55.7559 183.676 55.0176H182.487C182.61 56.2754 183.697 57.123 185.256 57.123C186.917 57.123 188.086 56.248 188.086 55.0107C188.086 53.9648 187.566 53.4453 186.131 53.083L185.03 52.8164C184.223 52.6113 183.847 52.2832 183.847 51.791C183.847 51.1689 184.422 50.7383 185.29 50.7383C186.165 50.7383 186.718 51.1621 186.801 51.8457H187.935C187.881 50.6426 186.801 49.7676 185.331 49.7676C183.765 49.7676 182.678 50.6357 182.678 51.8525ZM194.819 56.1113C193.964 56.1113 193.397 55.667 193.397 54.9902C193.397 54.3203 193.944 53.8965 194.901 53.835L196.801 53.7188V54.2998C196.801 55.3252 195.94 56.1113 194.819 56.1113ZM194.552 57.123C195.509 57.123 196.412 56.5898 196.835 55.7764H196.863V57H197.991V52.085C197.991 50.6699 196.938 49.7676 195.27 49.7676C193.588 49.7676 192.536 50.7109 192.454 51.9414H193.602C193.752 51.2441 194.327 50.8135 195.243 50.8135C196.227 50.8135 196.801 51.333 196.801 52.2012V52.7959L194.764 52.9121C193.123 53.0078 192.187 53.7734 192.187 54.9902C192.187 56.2686 193.137 57.123 194.552 57.123ZM205.548 52.2217C205.397 50.9434 204.338 49.7676 202.56 49.7676C200.598 49.7676 199.293 51.2031 199.293 53.4453C199.293 55.7354 200.605 57.123 202.574 57.123C204.187 57.123 205.377 56.125 205.561 54.71H204.392C204.187 55.5645 203.552 56.0771 202.581 56.0771C201.35 56.0771 200.503 55.0996 200.503 53.4453C200.503 51.832 201.337 50.8135 202.567 50.8135C203.613 50.8135 204.215 51.4492 204.386 52.2217H205.548ZM212.701 52.2217C212.551 50.9434 211.491 49.7676 209.714 49.7676C207.752 49.7676 206.446 51.2031 206.446 53.4453C206.446 55.7354 207.759 57.123 209.728 57.123C211.341 57.123 212.53 56.125 212.715 54.71H211.546C211.341 55.5645 210.705 56.0771 209.735 56.0771C208.504 56.0771 207.656 55.0996 207.656 53.4453C207.656 51.832 208.49 50.8135 209.721 50.8135C210.767 50.8135 211.368 51.4492 211.539 52.2217H212.701ZM216.895 57.123C218.857 57.123 220.183 55.708 220.183 53.4453C220.183 51.1758 218.857 49.7676 216.895 49.7676C214.926 49.7676 213.6 51.1758 213.6 53.4453C213.6 55.708 214.926 57.123 216.895 57.123ZM216.895 56.0771C215.637 56.0771 214.81 55.1201 214.81 53.4453C214.81 51.7705 215.637 50.8135 216.895 50.8135C218.153 50.8135 218.973 51.7705 218.973 53.4453C218.973 55.1201 218.153 56.0771 216.895 56.0771ZM221.526 57H222.716V52.5703C222.716 51.5654 223.317 50.9023 224.24 50.9023C224.527 50.9023 224.78 50.9365 224.876 50.9707V49.8154C224.78 49.8018 224.602 49.7676 224.397 49.7676C223.563 49.7676 222.907 50.2666 222.675 51.0527H222.647V49.8906H221.526V57ZM228.338 57.123C229.364 57.123 230.177 56.6172 230.635 55.7969H230.656V57H231.79V47.1357H230.601V51.0459H230.573C230.15 50.2666 229.329 49.7676 228.311 49.7676C226.52 49.7676 225.296 51.2168 225.296 53.4453C225.296 55.6738 226.527 57.123 228.338 57.123ZM228.564 50.8135C229.787 50.8135 230.608 51.8594 230.608 53.4453C230.608 55.0381 229.787 56.0771 228.564 56.0771C227.306 56.0771 226.513 55.0586 226.513 53.4453C226.513 51.8389 227.306 50.8135 228.564 50.8135ZM233.598 57H234.788V49.8906H233.598V57ZM234.193 48.6943C234.603 48.6943 234.938 48.3594 234.938 47.9561C234.938 47.5459 234.603 47.2178 234.193 47.2178C233.79 47.2178 233.455 47.5459 233.455 47.9561C233.455 48.3594 233.79 48.6943 234.193 48.6943ZM236.534 57H237.724V52.8164C237.724 51.6133 238.455 50.8203 239.576 50.8203C240.67 50.8203 241.21 51.4492 241.21 52.5977V57H242.399V52.3857C242.399 50.7725 241.497 49.7676 239.938 49.7676C238.838 49.7676 238.079 50.2598 237.683 51.0254H237.655V49.8906H236.534V57ZM246.949 56.0088C245.725 56.0088 244.925 55.0107 244.925 53.418C244.925 51.8252 245.725 50.8135 246.949 50.8135C248.186 50.8135 249.013 51.8525 249.013 53.418C249.013 54.9834 248.186 56.0088 246.949 56.0088ZM246.99 59.6797C248.951 59.6797 250.202 58.5518 250.202 56.8564V49.8906H249.068V51.0869H249.047C248.576 50.2598 247.742 49.7676 246.737 49.7676C244.898 49.7676 243.708 51.1895 243.708 53.418C243.708 55.626 244.898 57.0547 246.709 57.0547C247.707 57.0547 248.548 56.5488 248.986 55.7764H249.013V56.8975C249.013 57.957 248.268 58.668 247.037 58.668C246.149 58.668 245.445 58.2373 245.212 57.5879H243.989C244.187 58.7979 245.424 59.6797 246.99 59.6797ZM255.288 48.1748V49.8906H254.229V50.8682H255.288V55.1543C255.288 56.5215 255.794 57.0547 257.1 57.0547C257.38 57.0547 257.708 57.0342 257.852 57V56.002C257.77 56.0156 257.496 56.0361 257.359 56.0361C256.751 56.0361 256.478 55.7422 256.478 55.0928V50.8682H257.858V49.8906H256.478V48.1748H255.288ZM262.011 57.123C263.973 57.123 265.299 55.708 265.299 53.4453C265.299 51.1758 263.973 49.7676 262.011 49.7676C260.042 49.7676 258.716 51.1758 258.716 53.4453C258.716 55.708 260.042 57.123 262.011 57.123ZM262.011 56.0771C260.753 56.0771 259.926 55.1201 259.926 53.4453C259.926 51.7705 260.753 50.8135 262.011 50.8135C263.269 50.8135 264.089 51.7705 264.089 53.4453C264.089 55.1201 263.269 56.0771 262.011 56.0771ZM270.241 59.6592C271.526 59.6592 272.114 59.1602 272.723 57.499L275.519 49.8906H274.268L272.299 55.8105H272.278L270.31 49.8906H269.038L271.663 57.0068L271.499 57.5059C271.226 58.333 270.857 58.6543 270.193 58.6543C270.043 58.6543 269.859 58.6475 269.729 58.6201V59.6182C269.859 59.6455 270.098 59.6592 270.241 59.6592ZM279.343 57.123C281.305 57.123 282.631 55.708 282.631 53.4453C282.631 51.1758 281.305 49.7676 279.343 49.7676C277.375 49.7676 276.048 51.1758 276.048 53.4453C276.048 55.708 277.375 57.123 279.343 57.123ZM279.343 56.0771C278.085 56.0771 277.258 55.1201 277.258 53.4453C277.258 51.7705 278.085 50.8135 279.343 50.8135C280.601 50.8135 281.421 51.7705 281.421 53.4453C281.421 55.1201 280.601 56.0771 279.343 56.0771ZM289.812 49.8906H288.623V54.0674C288.623 55.2773 287.926 56.0703 286.77 56.0703C285.67 56.0703 285.13 55.4482 285.13 54.293V49.8906H283.94V54.5049C283.94 56.1182 284.849 57.123 286.401 57.123C287.495 57.123 288.233 56.665 288.657 55.8447H288.684V57H289.812V49.8906ZM291.497 57H292.687V52.5703C292.687 51.5654 293.288 50.9023 294.211 50.9023C294.498 50.9023 294.751 50.9365 294.847 50.9707V49.8154C294.751 49.8018 294.573 49.7676 294.368 49.7676C293.534 49.7676 292.878 50.2666 292.646 51.0527H292.618V49.8906H291.497V57ZM130.928 69.7676C129.896 69.7676 129.069 70.2939 128.631 71.0938H128.604V69.8906H127.476V79.3721H128.665V75.8447H128.693C129.116 76.624 129.937 77.123 130.955 77.123C132.746 77.123 133.97 75.6738 133.97 73.4453C133.97 71.2168 132.739 69.7676 130.928 69.7676ZM130.696 76.0771C129.479 76.0771 128.658 75.0312 128.658 73.4453C128.658 71.8662 129.479 70.8135 130.696 70.8135C131.96 70.8135 132.753 71.8389 132.753 73.4453C132.753 75.0586 131.96 76.0771 130.696 76.0771ZM135.313 77H136.503V72.5703C136.503 71.5654 137.104 70.9023 138.027 70.9023C138.314 70.9023 138.567 70.9365 138.663 70.9707V69.8154C138.567 69.8018 138.389 69.7676 138.184 69.7676C137.35 69.7676 136.694 70.2666 136.461 71.0527H136.434V69.8906H135.313V77ZM142.282 70.7998C143.403 70.7998 144.148 71.6475 144.176 72.8369H140.313C140.389 71.6543 141.168 70.7998 142.282 70.7998ZM144.148 74.9629C143.95 75.6328 143.287 76.0908 142.385 76.0908C141.106 76.0908 140.307 75.1953 140.307 73.835V73.7666H145.406V73.3154C145.406 71.1621 144.224 69.7676 142.303 69.7676C140.341 69.7676 139.083 71.2646 139.083 73.4727C139.083 75.708 140.32 77.123 142.357 77.123C143.909 77.123 145.112 76.207 145.317 74.9629H144.148ZM147.132 77H148.322V70.8682H149.771V69.8906H148.315V69.1045C148.315 68.4004 148.622 68.0586 149.265 68.0586C149.463 68.0586 149.661 68.0791 149.805 68.0996V67.1357C149.634 67.1084 149.347 67.0811 149.08 67.0811C147.768 67.0811 147.132 67.7305 147.132 69.0977V69.8906H146.141V70.8682H147.132V77ZM153.65 70.7998C154.771 70.7998 155.516 71.6475 155.544 72.8369H151.681C151.756 71.6543 152.536 70.7998 153.65 70.7998ZM155.516 74.9629C155.318 75.6328 154.655 76.0908 153.753 76.0908C152.474 76.0908 151.674 75.1953 151.674 73.835V73.7666H156.774V73.3154C156.774 71.1621 155.591 69.7676 153.671 69.7676C151.709 69.7676 150.451 71.2646 150.451 73.4727C150.451 75.708 151.688 77.123 153.725 77.123C155.277 77.123 156.48 76.207 156.685 74.9629H155.516ZM158.117 77H159.307V72.5703C159.307 71.5654 159.908 70.9023 160.831 70.9023C161.118 70.9023 161.371 70.9365 161.467 70.9707V69.8154C161.371 69.8018 161.193 69.7676 160.988 69.7676C160.154 69.7676 159.498 70.2666 159.266 71.0527H159.238V69.8906H158.117V77ZM165.086 70.7998C166.207 70.7998 166.952 71.6475 166.98 72.8369H163.118C163.193 71.6543 163.972 70.7998 165.086 70.7998ZM166.952 74.9629C166.754 75.6328 166.091 76.0908 165.189 76.0908C163.911 76.0908 163.111 75.1953 163.111 73.835V73.7666H168.21V73.3154C168.21 71.1621 167.028 69.7676 165.107 69.7676C163.145 69.7676 161.887 71.2646 161.887 73.4727C161.887 75.708 163.124 77.123 165.161 77.123C166.713 77.123 167.916 76.207 168.121 74.9629H166.952ZM169.553 77H170.743V72.8164C170.743 71.6133 171.474 70.8203 172.595 70.8203C173.689 70.8203 174.229 71.4492 174.229 72.5977V77H175.419V72.3857C175.419 70.7725 174.516 69.7676 172.958 69.7676C171.857 69.7676 171.098 70.2598 170.702 71.0254H170.675V69.8906H169.553V77ZM182.982 72.2217C182.832 70.9434 181.773 69.7676 179.995 69.7676C178.033 69.7676 176.728 71.2031 176.728 73.4453C176.728 75.7354 178.04 77.123 180.009 77.123C181.622 77.123 182.812 76.125 182.996 74.71H181.827C181.622 75.5645 180.986 76.0771 180.016 76.0771C178.785 76.0771 177.938 75.0996 177.938 73.4453C177.938 71.832 178.772 70.8135 180.002 70.8135C181.048 70.8135 181.649 71.4492 181.82 72.2217H182.982ZM187.081 70.7998C188.202 70.7998 188.947 71.6475 188.974 72.8369H185.112C185.187 71.6543 185.966 70.7998 187.081 70.7998ZM188.947 74.9629C188.748 75.6328 188.085 76.0908 187.183 76.0908C185.905 76.0908 185.105 75.1953 185.105 73.835V73.7666H190.205V73.3154C190.205 71.1621 189.022 69.7676 187.101 69.7676C185.139 69.7676 183.881 71.2646 183.881 73.4727C183.881 75.708 185.119 77.123 187.156 77.123C188.707 77.123 189.911 76.207 190.116 74.9629H188.947ZM191.425 71.8525C191.425 72.8232 192.04 73.4658 193.291 73.7871L194.542 74.1084C195.342 74.3203 195.636 74.5938 195.636 75.0996C195.636 75.7422 195.041 76.1523 194.077 76.1523C193.113 76.1523 192.553 75.7559 192.423 75.0176H191.233C191.356 76.2754 192.443 77.123 194.002 77.123C195.663 77.123 196.832 76.248 196.832 75.0107C196.832 73.9648 196.312 73.4453 194.877 73.083L193.776 72.8164C192.97 72.6113 192.594 72.2832 192.594 71.791C192.594 71.1689 193.168 70.7383 194.036 70.7383C194.911 70.7383 195.465 71.1621 195.547 71.8457H196.681C196.627 70.6426 195.547 69.7676 194.077 69.7676C192.512 69.7676 191.425 70.6357 191.425 71.8525Z" fill="#6B7280"/>
</svg>
