<svg width="24" height="24" viewBox="0 0 24 24" fill="none" xmlns="http://www.w3.org/2000/svg">
<path d="M10 17.7H6.21C2.41 17.7 1.25 16.54 1.25 12.74V6.74003C1.25 2.94003 2.41 1.78003 6.21 1.78003H16.74C20.54 1.78003 21.7 2.94003 21.7 6.74003C21.7 7.15003 21.36 7.49003 20.95 7.49003C20.54 7.49003 20.2 7.15003 20.2 6.74003C20.2 3.80003 19.68 3.28003 16.74 3.28003H6.21C3.27 3.28003 2.75 3.80003 2.75 6.74003V12.74C2.75 15.68 3.27 16.2 6.21 16.2H10C10.41 16.2 10.75 16.54 10.75 16.95C10.75 17.36 10.41 17.7 10 17.7Z" fill="#292D32"/>
<path d="M10 22.2199C9.59 22.2199 9.25 21.8799 9.25 21.4699V16.9399C9.25 16.5299 9.59 16.1899 10 16.1899C10.41 16.1899 10.75 16.5299 10.75 16.9399V21.4699C10.75 21.8899 10.41 22.2199 10 22.2199Z" fill="#292D32"/>
<path d="M10 13.7H2C1.59 13.7 1.25 13.36 1.25 12.95C1.25 12.54 1.59 12.2 2 12.2H10C10.41 12.2 10.75 12.54 10.75 12.95C10.75 13.36 10.41 13.7 10 13.7Z" fill="#292D32"/>
<path d="M9.99999 22.22H6.73999C6.32999 22.22 5.98999 21.88 5.98999 21.47C5.98999 21.06 6.32999 20.72 6.73999 20.72H9.99999C10.41 20.72 10.75 21.06 10.75 21.47C10.75 21.88 10.41 22.22 9.99999 22.22Z" fill="#292D32"/>
<path d="M19.04 22.22H15.49C12.72 22.22 11.78 21.28 11.78 18.51V12.8C11.78 10.03 12.72 9.08997 15.49 9.08997H19.04C21.81 9.08997 22.75 10.03 22.75 12.8V18.51C22.75 21.29 21.81 22.22 19.04 22.22ZM15.49 10.59C13.53 10.59 13.28 10.84 13.28 12.8V18.51C13.28 20.47 13.53 20.72 15.49 20.72H19.04C21 20.72 21.25 20.47 21.25 18.51V12.8C21.25 10.84 21 10.59 19.04 10.59H15.49Z" fill="#292D32"/>
<path d="M17.3 18.97C17.04 18.97 16.78 18.87 16.59 18.68C16.5 18.59 16.43 18.48 16.38 18.36C16.33 18.23 16.3 18.1 16.3 17.97C16.3 17.71 16.41 17.45 16.59 17.27C16.82 17.04 17.17 16.93 17.5 16.99C17.56 17.01 17.62 17.03 17.68 17.05C17.74 17.08 17.8001 17.11 17.85 17.14C17.91 17.18 17.96 17.22 18.01 17.27C18.19 17.45 18.3 17.71 18.3 17.97C18.3 18.1 18.27 18.23 18.22 18.36C18.17 18.48 18.1 18.59 18.01 18.68C17.96 18.73 17.91 18.77 17.85 18.8C17.8001 18.84 17.74 18.87 17.68 18.9C17.62 18.92 17.56 18.94 17.5 18.95C17.43 18.97 17.37 18.97 17.3 18.97Z" fill="#292D32"/>
</svg>
