<svg width="24" height="24" viewBox="0 0 24 24" fill="none" xmlns="http://www.w3.org/2000/svg">
<path d="M13.2698 23.25H10.7498C10.0498 23.25 9.41979 22.9499 8.99979 22.4399C8.62979 21.9799 8.48978 21.39 8.61978 20.83L9.02979 19.02C9.10979 18.68 9.40978 18.4399 9.75978 18.4399H14.2598C14.6098 18.4399 14.9098 18.68 14.9898 19.02L15.3998 20.83C15.5298 21.43 15.4098 22.01 15.0398 22.47C14.6298 22.96 13.9898 23.25 13.2698 23.25ZM10.3598 19.92L10.0798 21.15C10.0498 21.3 10.1098 21.42 10.1698 21.49C10.2998 21.65 10.5098 21.74 10.7498 21.74H13.2698C13.5298 21.74 13.7498 21.66 13.8698 21.51C13.9498 21.41 13.9698 21.29 13.9398 21.14L13.6598 19.91H10.3598V19.92Z" fill="#292D32"/>
<path d="M14.26 19.92C14.05 19.92 13.85 19.84 13.7 19.67C13.43 19.36 13.45 18.89 13.76 18.61L15.49 17.0699C16.18 16.4599 16.15 16.31 15.64 15.67L12.59 11.8C12.42 11.59 12.22 11.47 12.01 11.47C11.8 11.47 11.6 11.59 11.43 11.8L8.38003 15.67C7.84003 16.36 7.85002 16.51 8.51002 17.05L10.26 18.61C10.57 18.88 10.6 19.36 10.32 19.67C10.04 19.98 9.57002 20.01 9.26002 19.73L7.53002 18.1899C6.27002 17.1599 6.16002 16.06 7.20002 14.74L10.25 10.87C10.7 10.3 11.34 9.96997 12.01 9.96997C12.68 9.96997 13.32 10.3 13.77 10.87L16.82 14.74C17.85 16.04 17.75 17.0799 16.49 18.1899L14.76 19.73C14.61 19.86 14.43 19.92 14.26 19.92Z" fill="#292D32"/>
<path d="M12.0098 14.4C11.5998 14.4 11.2598 14.06 11.2598 13.65V11.12C11.2598 10.71 11.5998 10.37 12.0098 10.37C12.4198 10.37 12.7598 10.71 12.7598 11.12V13.65C12.7598 14.07 12.4198 14.4 12.0098 14.4Z" fill="#292D32"/>
<path d="M12.52 5.75H11.52C10.56 5.75 9.77002 4.96 9.77002 4V3C9.77002 2.04 10.56 1.25 11.52 1.25H12.52C13.48 1.25 14.27 2.04 14.27 3V4C14.27 4.96 13.49 5.75 12.52 5.75ZM11.52 2.75C11.38 2.75 11.27 2.86 11.27 3V4C11.27 4.14 11.38 4.25 11.52 4.25H12.52C12.66 4.25 12.77 4.14 12.77 4V3C12.77 2.86 12.66 2.75 12.52 2.75H11.52Z" fill="#292D32"/>
<path d="M4.27002 14.92H3.27002C2.31002 14.92 1.52002 14.13 1.52002 13.17V12.17C1.52002 11.21 2.31002 10.4199 3.27002 10.4199H4.27002C5.23002 10.4199 6.02002 11.21 6.02002 12.17V13.17C6.02002 14.13 5.23002 14.92 4.27002 14.92ZM3.27002 11.9199C3.13002 11.9199 3.02002 12.03 3.02002 12.17V13.17C3.02002 13.31 3.13002 13.42 3.27002 13.42H4.27002C4.41002 13.42 4.52002 13.31 4.52002 13.17V12.17C4.52002 12.03 4.41002 11.9199 4.27002 11.9199H3.27002Z" fill="#292D32"/>
<path d="M20.73 14.92H19.73C18.77 14.92 17.98 14.13 17.98 13.17V12.17C17.98 11.21 18.77 10.4199 19.73 10.4199H20.73C21.69 10.4199 22.48 11.21 22.48 12.17V13.17C22.48 14.13 21.7 14.92 20.73 14.92ZM19.73 11.9199C19.59 11.9199 19.48 12.03 19.48 12.17V13.17C19.48 13.31 19.59 13.42 19.73 13.42H20.73C20.87 13.42 20.98 13.31 20.98 13.17V12.17C20.98 12.03 20.87 11.9199 20.73 11.9199H19.73Z" fill="#292D32"/>
<path d="M3.75 11.9201C3.34 11.9201 3 11.5801 3 11.1701C3 6.90007 6.2 3.31008 10.44 2.81008C10.85 2.77008 11.22 3.06005 11.27 3.47005C11.32 3.88005 11.02 4.25007 10.61 4.30007C7.13 4.71007 4.5 7.66007 4.5 11.1701C4.5 11.5801 4.16 11.9201 3.75 11.9201Z" fill="#292D32"/>
<path d="M20.25 11.92C19.84 11.92 19.5 11.58 19.5 11.17C19.5 7.68001 16.89 4.73002 13.43 4.31002C13.02 4.26002 12.73 3.89 12.78 3.48C12.83 3.07 13.2 2.77004 13.62 2.83004C17.83 3.34004 21.01 6.93002 21.01 11.18C21 11.58 20.67 11.92 20.25 11.92Z" fill="#292D32"/>
</svg>
