<svg width="45" height="44" viewBox="0 0 45 44" fill="none" xmlns="http://www.w3.org/2000/svg">
<g id="vuesax/bold/tick-circle">
<g id="tick-circle">
<path id="Vector" d="M22.5 0C10.378 0 0.5 9.878 0.5 22C0.5 34.122 10.378 44 22.5 44C34.622 44 44.5 34.122 44.5 22C44.5 9.878 34.622 0 22.5 0ZM33.016 16.94L20.542 29.414C20.234 29.722 19.816 29.898 19.376 29.898C18.936 29.898 18.518 29.722 18.21 29.414L11.984 23.188C11.346 22.55 11.346 21.494 11.984 20.856C12.622 20.218 13.678 20.218 14.316 20.856L19.376 25.916L30.684 14.608C31.322 13.97 32.378 13.97 33.016 14.608C33.654 15.246 33.654 16.28 33.016 16.94Z" fill="#387FFB"/>
</g>
</g>
</svg>
