<svg width="328" height="180" viewBox="0 0 328 180" fill="none" xmlns="http://www.w3.org/2000/svg">
<path d="M21.6562 32V9.45312H18.1562V18.9844H6.57812V9.45312H3.07812V32H6.57812V22.0156H18.1562V32H21.6562ZM39.4844 15.5625H36.1094V25.1406C36.1094 27.7031 34.6406 29.3906 32.2031 29.3906C29.875 29.3906 28.6875 28.0469 28.6875 25.5469V15.5625H25.3125V26.2031C25.3125 29.9688 27.5 32.2969 31.0781 32.2969C33.5938 32.2969 35.2656 31.1875 36.1719 29.2188H36.25V32H39.4844V15.5625ZM42.8281 32H46.2031V22.4219C46.2031 19.875 47.7344 18.1875 50.1094 18.1875C52.4531 18.1875 53.6094 19.5469 53.6094 22.0156V32H57V21.3594C57 17.5938 54.9219 15.2812 51.2969 15.2812C48.7656 15.2812 47.0156 16.4375 46.125 18.3125H46.0469V15.5625H42.8281V32ZM66.4375 32.2812C68.8281 32.2812 70.7031 31.0781 71.6719 29.2031H71.7344V32H75.0156V9.45312H71.625V18.2969H71.5625C70.6406 16.4844 68.7656 15.2969 66.4062 15.2969C62.2812 15.2969 59.5312 18.5938 59.5312 23.7812C59.5312 28.9688 62.2812 32.2812 66.4375 32.2812ZM67.3281 18.1406C69.9219 18.1406 71.6562 20.375 71.6562 23.7812C71.6562 27.2188 69.9219 29.4219 67.3281 29.4219C64.6562 29.4219 62.9844 27.25 62.9844 23.7812C62.9844 20.3281 64.6562 18.1406 67.3281 18.1406ZM78.4844 32H81.8594V22.1562C81.8594 19.8281 83.2031 18.375 85.375 18.375C86.0312 18.375 86.625 18.4531 86.8906 18.5625V15.4219C86.6406 15.375 86.2188 15.2969 85.7344 15.2969C83.7969 15.2969 82.3281 16.4375 81.7812 18.3594H81.7031V15.5625H78.4844V32ZM95.1406 17.9844C97.5 17.9844 99.0938 19.75 99.1719 22.2656H90.9531C91.125 19.7812 92.7812 17.9844 95.1406 17.9844ZM99.1562 27.1719C98.7031 28.6094 97.2812 29.5781 95.3594 29.5781C92.6562 29.5781 90.9375 27.6875 90.9375 24.8281V24.625H102.547V23.4688C102.547 18.4844 99.7031 15.2656 95.1406 15.2656C90.5 15.2656 87.5312 18.7031 87.5312 23.8594C87.5312 29.0469 90.4531 32.3125 95.2812 32.3125C99.0469 32.3125 101.891 30.1719 102.359 27.1719H99.1562ZM111.344 32.2812C113.734 32.2812 115.609 31.0781 116.578 29.2031H116.641V32H119.922V9.45312H116.531V18.2969H116.469C115.547 16.4844 113.672 15.2969 111.312 15.2969C107.188 15.2969 104.438 18.5938 104.438 23.7812C104.438 28.9688 107.188 32.2812 111.344 32.2812ZM112.234 18.1406C114.828 18.1406 116.562 20.375 116.562 23.7812C116.562 27.2188 114.828 29.4219 112.234 29.4219C109.562 29.4219 107.891 27.25 107.891 23.7812C107.891 20.3281 109.562 18.1406 112.234 18.1406ZM123.094 20.2188C123.094 22.5156 124.594 24.0625 127.562 24.7812L130.5 25.5C132.219 25.9375 132.844 26.5156 132.844 27.5625C132.844 28.8906 131.594 29.7344 129.562 29.7344C127.5 29.7344 126.281 28.8594 126.016 27.2812H122.672C122.938 30.2969 125.516 32.3125 129.406 32.3125C133.438 32.3125 136.234 30.25 136.234 27.25C136.234 24.8281 134.984 23.5781 131.672 22.7812L128.906 22.1406C127.203 21.7188 126.391 21.0312 126.391 20.0156C126.391 18.7188 127.609 17.8281 129.438 17.8281C131.328 17.8281 132.531 18.75 132.688 20.2344H135.859C135.75 17.3125 133.188 15.2656 129.531 15.2656C125.688 15.2656 123.094 17.2812 123.094 20.2188ZM152.422 32.3125C157.125 32.3125 160.219 29.0781 160.219 23.7812C160.219 18.5 157.109 15.2656 152.422 15.2656C147.734 15.2656 144.625 18.5 144.625 23.7812C144.625 29.0781 147.719 32.3125 152.422 32.3125ZM152.422 29.5312C149.781 29.5312 148.062 27.4375 148.062 23.7812C148.062 20.1406 149.781 18.0469 152.422 18.0469C155.062 18.0469 156.781 20.1406 156.781 23.7812C156.781 27.4375 155.078 29.5312 152.422 29.5312ZM163.812 32H167.203V18.2344H170.484V15.5938H167.156V14.0469C167.156 12.5938 167.844 11.8594 169.312 11.8594C169.766 11.8594 170.219 11.8906 170.547 11.9531V9.45312C170.109 9.375 169.344 9.29688 168.656 9.29688C165.312 9.29688 163.812 10.7969 163.812 13.9844V15.5938H161.547V18.2344H163.812V32ZM183.125 15.5625H179.75V32.7656C179.75 34.4219 179.125 35.0469 177.453 35.0469C177.391 35.0469 177.031 35.0312 176.969 35.0312V37.6875C177.062 37.7188 177.594 37.7188 177.75 37.7188C181.391 37.7188 183.125 36.125 183.125 32.7812V15.5625ZM181.438 13.1562C182.531 13.1562 183.406 12.2969 183.406 11.2344C183.406 10.1562 182.531 9.29688 181.438 9.29688C180.359 9.29688 179.484 10.1562 179.484 11.2344C179.484 12.2969 180.359 13.1562 181.438 13.1562ZM193.641 32.3125C198.344 32.3125 201.438 29.0781 201.438 23.7812C201.438 18.5 198.328 15.2656 193.641 15.2656C188.953 15.2656 185.844 18.5 185.844 23.7812C185.844 29.0781 188.938 32.3125 193.641 32.3125ZM193.641 29.5312C191 29.5312 189.281 27.4375 189.281 23.7812C189.281 20.1406 191 18.0469 193.641 18.0469C196.281 18.0469 198 20.1406 198 23.7812C198 27.4375 196.297 29.5312 193.641 29.5312ZM212.797 32.2812C216.969 32.2812 219.656 29 219.656 23.7812C219.656 18.5781 216.953 15.2969 212.812 15.2969C210.484 15.2969 208.609 16.4531 207.625 18.3594H207.547V9.45312H204.172V32H207.453V29.2031H207.516C208.531 31.1094 210.391 32.2812 212.797 32.2812ZM211.891 18.1406C214.547 18.1406 216.188 20.3281 216.188 23.7812C216.188 27.2656 214.547 29.4219 211.891 29.4219C209.328 29.4219 207.531 27.2031 207.531 23.7812C207.531 20.3906 209.328 18.1406 211.891 18.1406ZM222 20.2188C222 22.5156 223.5 24.0625 226.469 24.7812L229.406 25.5C231.125 25.9375 231.75 26.5156 231.75 27.5625C231.75 28.8906 230.5 29.7344 228.469 29.7344C226.406 29.7344 225.188 28.8594 224.922 27.2812H221.578C221.844 30.2969 224.422 32.3125 228.312 32.3125C232.344 32.3125 235.141 30.25 235.141 27.25C235.141 24.8281 233.891 23.5781 230.578 22.7812L227.812 22.1406C226.109 21.7188 225.297 21.0312 225.297 20.0156C225.297 18.7188 226.516 17.8281 228.344 17.8281C230.234 17.8281 231.438 18.75 231.594 20.2344H234.766C234.656 17.3125 232.094 15.2656 228.438 15.2656C224.594 15.2656 222 17.2812 222 20.2188ZM250.016 29.6094C248.203 29.6094 247.016 28.6719 247.016 27.2344C247.016 25.8281 248.156 24.9375 250.172 24.7969L254.219 24.5469V25.8438C254.219 27.9844 252.375 29.6094 250.016 29.6094ZM249.078 32.2812C251.234 32.2812 253.312 31.125 254.266 29.2969H254.344V32H257.578V20.6719C257.578 17.375 255.031 15.2656 251.047 15.2656C246.984 15.2656 244.453 17.4531 244.266 20.4219H247.453C247.75 18.9531 248.969 18.0156 250.922 18.0156C252.984 18.0156 254.219 19.1094 254.219 20.9375V22.2031L249.719 22.4688C245.812 22.6875 243.609 24.4531 243.609 27.3281C243.609 30.2812 245.859 32.2812 249.078 32.2812ZM260.859 32H264.234V22.1562C264.234 19.8281 265.578 18.375 267.75 18.375C268.406 18.375 269 18.4531 269.266 18.5625V15.4219C269.016 15.375 268.594 15.2969 268.109 15.2969C266.172 15.2969 264.703 16.4375 264.156 18.3594H264.078V15.5625H260.859V32ZM277.516 17.9844C279.875 17.9844 281.469 19.75 281.547 22.2656H273.328C273.5 19.7812 275.156 17.9844 277.516 17.9844ZM281.531 27.1719C281.078 28.6094 279.656 29.5781 277.734 29.5781C275.031 29.5781 273.312 27.6875 273.312 24.8281V24.625H284.922V23.4688C284.922 18.4844 282.078 15.2656 277.516 15.2656C272.875 15.2656 269.906 18.7031 269.906 23.8594C269.906 29.0469 272.828 32.3125 277.656 32.3125C281.422 32.3125 284.266 30.1719 284.734 27.1719H281.531ZM24.3594 57.5625H21.0156L18.0156 70.5H17.9375L14.5 57.5625H11.25L7.82812 70.5H7.76562L4.76562 57.5625H1.39062L5.90625 74H9.39062L12.8125 61.6875H12.8906L16.3438 74H19.8594L24.3594 57.5625ZM31.8906 71.6094C30.0781 71.6094 28.8906 70.6719 28.8906 69.2344C28.8906 67.8281 30.0312 66.9375 32.0469 66.7969L36.0938 66.5469V67.8438C36.0938 69.9844 34.25 71.6094 31.8906 71.6094ZM30.9531 74.2812C33.1094 74.2812 35.1875 73.125 36.1406 71.2969H36.2188V74H39.4531V62.6719C39.4531 59.375 36.9062 57.2656 32.9219 57.2656C28.8594 57.2656 26.3281 59.4531 26.1406 62.4219H29.3281C29.625 60.9531 30.8438 60.0156 32.7969 60.0156C34.8594 60.0156 36.0938 61.1094 36.0938 62.9375V64.2031L31.5938 64.4688C27.6875 64.6875 25.4844 66.4531 25.4844 69.3281C25.4844 72.2812 27.7344 74.2812 30.9531 74.2812ZM42.8438 74H46.2188V57.5625H42.8438V74ZM44.5312 55.1562C45.625 55.1562 46.5 54.2969 46.5 53.2344C46.5 52.1562 45.625 51.2969 44.5312 51.2969C43.4531 51.2969 42.5781 52.1562 42.5781 53.2344C42.5781 54.2969 43.4531 55.1562 44.5312 55.1562ZM50.6562 53.6719V57.5625H48.2656V60.2344H50.6562V69.6719C50.6562 72.8438 51.9531 74.1094 55.2812 74.1094C56.0312 74.1094 56.7812 74.0469 57.1562 73.9531V71.2812C56.9375 71.3281 56.3906 71.3594 56.0469 71.3594C54.6719 71.3594 54.0469 70.7188 54.0469 69.2969V60.2344H57.1719V57.5625H54.0469V53.6719H50.6562ZM60.0625 74H63.4375V57.5625H60.0625V74ZM61.75 55.1562C62.8438 55.1562 63.7188 54.2969 63.7188 53.2344C63.7188 52.1562 62.8438 51.2969 61.75 51.2969C60.6719 51.2969 59.7969 52.1562 59.7969 53.2344C59.7969 54.2969 60.6719 55.1562 61.75 55.1562ZM66.8906 74H70.2656V64.4219C70.2656 61.875 71.7969 60.1875 74.1719 60.1875C76.5156 60.1875 77.6719 61.5469 77.6719 64.0156V74H81.0625V63.3594C81.0625 59.5938 78.9844 57.2812 75.3594 57.2812C72.8281 57.2812 71.0781 58.4375 70.1875 60.3125H70.1094V57.5625H66.8906V74ZM91.3281 71.2656C88.7344 71.2656 87.0469 69.1719 87.0469 65.7344C87.0469 62.3125 88.7344 60.1406 91.3281 60.1406C93.9688 60.1406 95.7031 62.3594 95.7031 65.7344C95.7031 69.125 93.9688 71.2656 91.3281 71.2656ZM91.3594 80.1875C96.0469 80.1875 99.0781 77.625 99.0781 73.7031V57.5625H95.7969V60.375H95.7344C94.7344 58.4688 92.8281 57.2969 90.5 57.2969C86.2812 57.2969 83.5938 60.5469 83.5938 65.7188C83.5938 70.8438 86.2969 74.0625 90.4219 74.0625C92.7656 74.0625 94.7031 72.8906 95.625 71.1094H95.6875V73.8125C95.6875 76.0625 94.125 77.5625 91.4844 77.5625C89.5625 77.5625 88.0625 76.6562 87.5781 75.2812H84.1875C84.6094 78.125 87.4844 80.1875 91.3594 80.1875ZM109.906 74H113.297V60.2344H116.578V57.5938H113.25V56.0469C113.25 54.5938 113.938 53.8594 115.406 53.8594C115.859 53.8594 116.312 53.8906 116.641 53.9531V51.4531C116.203 51.375 115.438 51.2969 114.75 51.2969C111.406 51.2969 109.906 52.7969 109.906 55.9844V57.5938H107.641V60.2344H109.906V74ZM125.609 74.3125C130.312 74.3125 133.406 71.0781 133.406 65.7812C133.406 60.5 130.297 57.2656 125.609 57.2656C120.922 57.2656 117.812 60.5 117.812 65.7812C117.812 71.0781 120.906 74.3125 125.609 74.3125ZM125.609 71.5312C122.969 71.5312 121.25 69.4375 121.25 65.7812C121.25 62.1406 122.969 60.0469 125.609 60.0469C128.25 60.0469 129.969 62.1406 129.969 65.7812C129.969 69.4375 128.266 71.5312 125.609 71.5312ZM136.016 74H139.391V64.1562C139.391 61.8281 140.734 60.375 142.906 60.375C143.562 60.375 144.156 60.4531 144.422 60.5625V57.4219C144.172 57.375 143.75 57.2969 143.266 57.2969C141.328 57.2969 139.859 58.4375 139.312 60.3594H139.234V57.5625H136.016V74ZM154.641 80.125C158.062 80.125 159.672 78.8438 161.078 74.8594L167.25 57.5625H163.688L159.516 70.9375H159.469L155.297 57.5625H151.641L157.578 74.0156C157.578 74.0312 157.281 75 157.281 75.0312C156.766 76.7188 155.938 77.375 154.359 77.375C154.078 77.375 153.516 77.375 153.266 77.3125V80.0469C153.516 80.0938 154.375 80.125 154.641 80.125ZM175.828 74.3125C180.531 74.3125 183.625 71.0781 183.625 65.7812C183.625 60.5 180.516 57.2656 175.828 57.2656C171.141 57.2656 168.031 60.5 168.031 65.7812C168.031 71.0781 171.125 74.3125 175.828 74.3125ZM175.828 71.5312C173.188 71.5312 171.469 69.4375 171.469 65.7812C171.469 62.1406 173.188 60.0469 175.828 60.0469C178.469 60.0469 180.188 62.1406 180.188 65.7812C180.188 69.4375 178.484 71.5312 175.828 71.5312ZM200.328 57.5625H196.953V67.1406C196.953 69.7031 195.484 71.3906 193.047 71.3906C190.719 71.3906 189.531 70.0469 189.531 67.5469V57.5625H186.156V68.2031C186.156 71.9688 188.344 74.2969 191.922 74.2969C194.438 74.2969 196.109 73.1875 197.016 71.2188H197.094V74H200.328V57.5625ZM211.156 53.6719V57.5625H208.766V60.2344H211.156V69.6719C211.156 72.8438 212.453 74.1094 215.781 74.1094C216.531 74.1094 217.281 74.0469 217.656 73.9531V71.2812C217.438 71.3281 216.891 71.3594 216.547 71.3594C215.172 71.3594 214.547 70.7188 214.547 69.2969V60.2344H217.672V57.5625H214.547V53.6719H211.156ZM227.109 74.3125C231.812 74.3125 234.906 71.0781 234.906 65.7812C234.906 60.5 231.797 57.2656 227.109 57.2656C222.422 57.2656 219.312 60.5 219.312 65.7812C219.312 71.0781 222.406 74.3125 227.109 74.3125ZM227.109 71.5312C224.469 71.5312 222.75 69.4375 222.75 65.7812C222.75 62.1406 224.469 60.0469 227.109 60.0469C229.75 60.0469 231.469 62.1406 231.469 65.7812C231.469 69.4375 229.766 71.5312 227.109 71.5312Z" fill="#111827"/>
<path d="M247.5 57.5625H244.125V74.7656C244.125 76.4219 243.5 77.0469 241.828 77.0469C241.766 77.0469 241.406 77.0312 241.344 77.0312V79.6875C241.438 79.7188 241.969 79.7188 242.125 79.7188C245.766 79.7188 247.5 78.125 247.5 74.7812V57.5625ZM245.812 55.1562C246.906 55.1562 247.781 54.2969 247.781 53.2344C247.781 52.1562 246.906 51.2969 245.812 51.2969C244.734 51.2969 243.859 52.1562 243.859 53.2344C243.859 54.2969 244.734 55.1562 245.812 55.1562ZM258.016 74.3125C262.719 74.3125 265.812 71.0781 265.812 65.7812C265.812 60.5 262.703 57.2656 258.016 57.2656C253.328 57.2656 250.219 60.5 250.219 65.7812C250.219 71.0781 253.312 74.3125 258.016 74.3125ZM258.016 71.5312C255.375 71.5312 253.656 69.4375 253.656 65.7812C253.656 62.1406 255.375 60.0469 258.016 60.0469C260.656 60.0469 262.375 62.1406 262.375 65.7812C262.375 69.4375 260.672 71.5312 258.016 71.5312ZM268.531 74H271.906V57.5625H268.531V74ZM270.219 55.1562C271.312 55.1562 272.188 54.2969 272.188 53.2344C272.188 52.1562 271.312 51.2969 270.219 51.2969C269.141 51.2969 268.266 52.1562 268.266 53.2344C268.266 54.2969 269.141 55.1562 270.219 55.1562ZM275.359 74H278.734V64.4219C278.734 61.875 280.266 60.1875 282.641 60.1875C284.984 60.1875 286.141 61.5469 286.141 64.0156V74H289.531V63.3594C289.531 59.5938 287.453 57.2812 283.828 57.2812C281.297 57.2812 279.547 58.4375 278.656 60.3125H278.578V57.5625H275.359V74ZM3.65625 95.6719V99.5625H1.26562V102.234H3.65625V111.672C3.65625 114.844 4.95312 116.109 8.28125 116.109C9.03125 116.109 9.78125 116.047 10.1562 115.953V113.281C9.9375 113.328 9.39062 113.359 9.04688 113.359C7.67188 113.359 7.04688 112.719 7.04688 111.297V102.234H10.1719V99.5625H7.04688V95.6719H3.65625ZM19.6094 116.312C24.3125 116.312 27.4062 113.078 27.4062 107.781C27.4062 102.5 24.2969 99.2656 19.6094 99.2656C14.9219 99.2656 11.8125 102.5 11.8125 107.781C11.8125 113.078 14.9062 116.312 19.6094 116.312ZM19.6094 113.531C16.9688 113.531 15.25 111.438 15.25 107.781C15.25 104.141 16.9688 102.047 19.6094 102.047C22.25 102.047 23.9688 104.141 23.9688 107.781C23.9688 111.438 22.2656 113.531 19.6094 113.531ZM37.0156 113.266C34.4219 113.266 32.7344 111.172 32.7344 107.734C32.7344 104.312 34.4219 102.141 37.0156 102.141C39.6562 102.141 41.3906 104.359 41.3906 107.734C41.3906 111.125 39.6562 113.266 37.0156 113.266ZM37.0469 122.188C41.7344 122.188 44.7656 119.625 44.7656 115.703V99.5625H41.4844V102.375H41.4219C40.4219 100.469 38.5156 99.2969 36.1875 99.2969C31.9688 99.2969 29.2812 102.547 29.2812 107.719C29.2812 112.844 31.9844 116.062 36.1094 116.062C38.4531 116.062 40.3906 114.891 41.3125 113.109H41.375V115.812C41.375 118.062 39.8125 119.562 37.1719 119.562C35.25 119.562 33.75 118.656 33.2656 117.281H29.875C30.2969 120.125 33.1719 122.188 37.0469 122.188ZM54.9844 101.984C57.3438 101.984 58.9375 103.75 59.0156 106.266H50.7969C50.9688 103.781 52.625 101.984 54.9844 101.984ZM59 111.172C58.5469 112.609 57.125 113.578 55.2031 113.578C52.5 113.578 50.7812 111.688 50.7812 108.828V108.625H62.3906V107.469C62.3906 102.484 59.5469 99.2656 54.9844 99.2656C50.3438 99.2656 47.375 102.703 47.375 107.859C47.375 113.047 50.2969 116.312 55.125 116.312C58.8906 116.312 61.7344 114.172 62.2031 111.172H59ZM66 95.6719V99.5625H63.6094V102.234H66V111.672C66 114.844 67.2969 116.109 70.625 116.109C71.375 116.109 72.125 116.047 72.5 115.953V113.281C72.2812 113.328 71.7344 113.359 71.3906 113.359C70.0156 113.359 69.3906 112.719 69.3906 111.297V102.234H72.5156V99.5625H69.3906V95.6719H66ZM75.4219 116H78.7969V106.5C78.7969 103.906 80.3281 102.188 82.8281 102.188C85.2031 102.188 86.4219 103.641 86.4219 106.062V116H89.8125V105.406C89.8125 101.688 87.6562 99.2812 84.0469 99.2812C81.5469 99.2812 79.75 100.391 78.8438 102.312H78.7656V93.4531H75.4219V116ZM99.9531 101.984C102.312 101.984 103.906 103.75 103.984 106.266H95.7656C95.9375 103.781 97.5938 101.984 99.9531 101.984ZM103.969 111.172C103.516 112.609 102.094 113.578 100.172 113.578C97.4688 113.578 95.75 111.688 95.75 108.828V108.625H107.359V107.469C107.359 102.484 104.516 99.2656 99.9531 99.2656C95.3125 99.2656 92.3438 102.703 92.3438 107.859C92.3438 113.047 95.2656 116.312 100.094 116.312C103.859 116.312 106.703 114.172 107.172 111.172H103.969ZM109.984 116H113.359V106.156C113.359 103.828 114.703 102.375 116.875 102.375C117.531 102.375 118.125 102.453 118.391 102.562V99.4219C118.141 99.375 117.719 99.2969 117.234 99.2969C115.297 99.2969 113.828 100.438 113.281 102.359H113.203V99.5625H109.984V116Z" fill="#3366FF"/>
<path d="M3.5 154V142.727H2.09375V154H3.5ZM5.63656 154H6.99594V148.906C6.99594 147.781 7.77719 146.938 8.85531 146.938C9.86313 146.938 10.5194 147.578 10.5194 148.555V154H11.8788V148.836C11.8788 147.734 12.6366 146.938 13.7147 146.938C14.785 146.938 15.4022 147.594 15.4022 148.703V154H16.7616V148.391C16.7616 146.781 15.7225 145.734 14.1131 145.734C12.9725 145.734 12.0194 146.312 11.5663 147.281H11.535C11.1834 146.297 10.3631 145.734 9.25375 145.734C8.16 145.734 7.33188 146.312 6.94906 147.172H6.91781V145.875H5.63656V154ZM18.6559 154H20.0153V148.906C20.0153 147.781 20.7966 146.938 21.8747 146.938C22.8825 146.938 23.5387 147.578 23.5387 148.555V154H24.8981V148.836C24.8981 147.734 25.6559 146.938 26.7341 146.938C27.8044 146.938 28.4216 147.594 28.4216 148.703V154H29.7809V148.391C29.7809 146.781 28.7419 145.734 27.1325 145.734C25.9919 145.734 25.0387 146.312 24.5856 147.281H24.5544C24.2028 146.297 23.3825 145.734 22.2731 145.734C21.1794 145.734 20.3512 146.312 19.9684 147.172H19.9372V145.875H18.6559V154ZM34.9331 146.914C36.2144 146.914 37.0659 147.883 37.0972 149.242H32.6831C32.7691 147.891 33.6597 146.914 34.9331 146.914ZM37.0659 151.672C36.8394 152.438 36.0816 152.961 35.0503 152.961C33.5894 152.961 32.6753 151.938 32.6753 150.383V150.305H38.5034V149.789C38.5034 147.328 37.1519 145.734 34.9566 145.734C32.7144 145.734 31.2769 147.445 31.2769 149.969C31.2769 152.523 32.6909 154.141 35.0191 154.141C36.7925 154.141 38.1675 153.094 38.4019 151.672H37.0659ZM43.1166 154.141C44.2884 154.141 45.2181 153.562 45.7416 152.625H45.765V154H47.0619V142.727H45.7025V147.195H45.6712C45.1869 146.305 44.2494 145.734 43.0853 145.734C41.0384 145.734 39.64 147.391 39.64 149.938C39.64 152.484 41.0462 154.141 43.1166 154.141ZM43.3744 146.93C44.7728 146.93 45.7103 148.125 45.7103 149.938C45.7103 151.758 44.7728 152.945 43.3744 152.945C41.9369 152.945 41.0306 151.781 41.0306 149.938C41.0306 148.102 41.9369 146.93 43.3744 146.93ZM49.1281 154H50.4875V145.875H49.1281V154ZM49.8078 144.508C50.2766 144.508 50.6594 144.125 50.6594 143.664C50.6594 143.195 50.2766 142.82 49.8078 142.82C49.3469 142.82 48.9641 143.195 48.9641 143.664C48.9641 144.125 49.3469 144.508 49.8078 144.508ZM55.1631 152.984C54.1866 152.984 53.5381 152.477 53.5381 151.703C53.5381 150.938 54.1631 150.453 55.2569 150.383L57.4287 150.25V150.914C57.4287 152.086 56.4444 152.984 55.1631 152.984ZM54.8584 154.141C55.9522 154.141 56.9834 153.531 57.4678 152.602H57.4991V154H58.7881V148.383C58.7881 146.766 57.585 145.734 55.6787 145.734C53.7569 145.734 52.5537 146.812 52.46 148.219H53.7725C53.9444 147.422 54.6006 146.93 55.6475 146.93C56.7725 146.93 57.4287 147.523 57.4287 148.516V149.195L55.1006 149.328C53.2256 149.438 52.1553 150.312 52.1553 151.703C52.1553 153.164 53.2412 154.141 54.8584 154.141ZM61.1122 143.914V145.875H59.9012V146.992H61.1122V151.891C61.1122 153.453 61.6903 154.062 63.1825 154.062C63.5028 154.062 63.8778 154.039 64.0419 154V152.859C63.9481 152.875 63.6356 152.898 63.4794 152.898C62.7841 152.898 62.4716 152.562 62.4716 151.82V146.992H64.0497V145.875H62.4716V143.914H61.1122ZM68.6862 146.914C69.9675 146.914 70.8191 147.883 70.8503 149.242H66.4362C66.5222 147.891 67.4128 146.914 68.6862 146.914ZM70.8191 151.672C70.5925 152.438 69.8347 152.961 68.8034 152.961C67.3425 152.961 66.4284 151.938 66.4284 150.383V150.305H72.2566V149.789C72.2566 147.328 70.905 145.734 68.7097 145.734C66.4675 145.734 65.03 147.445 65.03 149.969C65.03 152.523 66.4441 154.141 68.7722 154.141C70.5456 154.141 71.9206 153.094 72.155 151.672H70.8191ZM73.8619 154H75.2213V142.727H73.8619V154ZM77.8891 157.039C79.3578 157.039 80.0297 156.469 80.725 154.57L83.9203 145.875H82.4906L80.2406 152.641H80.2172L77.9672 145.875H76.5141L79.5141 154.008L79.3266 154.578C79.0141 155.523 78.5922 155.891 77.8344 155.891C77.6625 155.891 77.4516 155.883 77.3031 155.852V156.992C77.4516 157.023 77.725 157.039 77.8891 157.039ZM90.0294 145.875H88.67V154.414C88.67 155.32 88.3497 155.656 87.4669 155.656C87.4591 155.656 87.2716 155.656 87.2559 155.656V156.789C87.2716 156.797 87.4903 156.797 87.5137 156.797C89.2481 156.797 90.0294 156.047 90.0294 154.398V145.875ZM89.3497 144.508C89.8184 144.508 90.2012 144.125 90.2012 143.664C90.2012 143.195 89.8184 142.82 89.3497 142.82C88.8887 142.82 88.5059 143.195 88.5059 143.664C88.5059 144.125 88.8887 144.508 89.3497 144.508ZM95.3925 154.141C97.6347 154.141 99.1503 152.523 99.1503 149.938C99.1503 147.344 97.6347 145.734 95.3925 145.734C93.1425 145.734 91.6269 147.344 91.6269 149.938C91.6269 152.523 93.1425 154.141 95.3925 154.141ZM95.3925 152.945C93.955 152.945 93.0097 151.852 93.0097 149.938C93.0097 148.023 93.955 146.93 95.3925 146.93C96.83 146.93 97.7675 148.023 97.7675 149.938C97.7675 151.852 96.83 152.945 95.3925 152.945ZM100.756 154H102.115V145.875H100.756V154ZM101.435 144.508C101.904 144.508 102.287 144.125 102.287 143.664C102.287 143.195 101.904 142.82 101.435 142.82C100.974 142.82 100.592 143.195 100.592 143.664C100.592 144.125 100.974 144.508 101.435 144.508ZM104.111 154H105.47V149.219C105.47 147.844 106.306 146.938 107.588 146.938C108.838 146.938 109.455 147.656 109.455 148.969V154H110.814V148.727C110.814 146.883 109.783 145.734 108.002 145.734C106.744 145.734 105.877 146.297 105.423 147.172H105.392V145.875H104.111V154ZM122.822 145.875H121.462V150.648C121.462 152.031 120.665 152.938 119.345 152.938C118.087 152.938 117.47 152.227 117.47 150.906V145.875H116.111V151.148C116.111 152.992 117.15 154.141 118.923 154.141C120.173 154.141 121.017 153.617 121.501 152.68H121.533V154H122.822V145.875ZM124.607 148.117C124.607 149.227 125.31 149.961 126.739 150.328L128.169 150.695C129.083 150.938 129.419 151.25 129.419 151.828C129.419 152.562 128.739 153.031 127.638 153.031C126.536 153.031 125.896 152.578 125.747 151.734H124.388C124.528 153.172 125.771 154.141 127.552 154.141C129.45 154.141 130.786 153.141 130.786 151.727C130.786 150.531 130.192 149.938 128.552 149.523L127.294 149.219C126.372 148.984 125.942 148.609 125.942 148.047C125.942 147.336 126.599 146.844 127.591 146.844C128.591 146.844 129.224 147.328 129.317 148.109H130.614C130.552 146.734 129.317 145.734 127.638 145.734C125.849 145.734 124.607 146.727 124.607 148.117ZM138.481 152.984C137.505 152.984 136.856 152.477 136.856 151.703C136.856 150.938 137.481 150.453 138.575 150.383L140.747 150.25V150.914C140.747 152.086 139.762 152.984 138.481 152.984ZM138.177 154.141C139.27 154.141 140.302 153.531 140.786 152.602H140.817V154H142.106V148.383C142.106 146.766 140.903 145.734 138.997 145.734C137.075 145.734 135.872 146.812 135.778 148.219H137.091C137.262 147.422 137.919 146.93 138.966 146.93C140.091 146.93 140.747 147.523 140.747 148.516V149.195L138.419 149.328C136.544 149.438 135.473 150.312 135.473 151.703C135.473 153.164 136.559 154.141 138.177 154.141ZM143.993 154H145.352V149.219C145.352 147.844 146.188 146.938 147.469 146.938C148.719 146.938 149.337 147.656 149.337 148.969V154H150.696V148.727C150.696 146.883 149.665 145.734 147.883 145.734C146.626 145.734 145.758 146.297 145.305 147.172H145.274V145.875H143.993V154ZM155.668 154.141C156.84 154.141 157.77 153.562 158.293 152.625H158.317V154H159.614V142.727H158.254V147.195H158.223C157.739 146.305 156.801 145.734 155.637 145.734C153.59 145.734 152.192 147.391 152.192 149.938C152.192 152.484 153.598 154.141 155.668 154.141ZM155.926 146.93C157.325 146.93 158.262 148.125 158.262 149.938C158.262 151.758 157.325 152.945 155.926 152.945C154.489 152.945 153.583 151.781 153.583 149.938C153.583 148.102 154.489 146.93 155.926 146.93ZM164.91 148.117C164.91 149.227 165.613 149.961 167.043 150.328L168.473 150.695C169.387 150.938 169.723 151.25 169.723 151.828C169.723 152.562 169.043 153.031 167.942 153.031C166.84 153.031 166.199 152.578 166.051 151.734H164.692C164.832 153.172 166.074 154.141 167.856 154.141C169.754 154.141 171.09 153.141 171.09 151.727C171.09 150.531 170.496 149.938 168.856 149.523L167.598 149.219C166.676 148.984 166.246 148.609 166.246 148.047C166.246 147.336 166.902 146.844 167.895 146.844C168.895 146.844 169.527 147.328 169.621 148.109H170.918C170.856 146.734 169.621 145.734 167.942 145.734C166.152 145.734 164.91 146.727 164.91 148.117ZM173.102 143.914V145.875H171.891V146.992H173.102V151.891C173.102 153.453 173.68 154.062 175.172 154.062C175.492 154.062 175.867 154.039 176.031 154V152.859C175.938 152.875 175.625 152.898 175.469 152.898C174.773 152.898 174.461 152.562 174.461 151.82V146.992H176.039V145.875H174.461V143.914H173.102ZM180.176 152.984C179.199 152.984 178.551 152.477 178.551 151.703C178.551 150.938 179.176 150.453 180.269 150.383L182.441 150.25V150.914C182.441 152.086 181.457 152.984 180.176 152.984ZM179.871 154.141C180.965 154.141 181.996 153.531 182.48 152.602H182.512V154H183.801V148.383C183.801 146.766 182.598 145.734 180.691 145.734C178.769 145.734 177.566 146.812 177.473 148.219H178.785C178.957 147.422 179.613 146.93 180.66 146.93C181.785 146.93 182.441 147.523 182.441 148.516V149.195L180.113 149.328C178.238 149.438 177.168 150.312 177.168 151.703C177.168 153.164 178.254 154.141 179.871 154.141ZM185.687 154H187.047V148.938C187.047 147.789 187.734 147.031 188.789 147.031C189.117 147.031 189.406 147.07 189.515 147.109V145.789C189.406 145.773 189.203 145.734 188.968 145.734C188.015 145.734 187.265 146.305 187 147.203H186.968V145.875H185.687V154ZM191.222 143.914V145.875H190.011V146.992H191.222V151.891C191.222 153.453 191.8 154.062 193.292 154.062C193.613 154.062 193.988 154.039 194.152 154V152.859C194.058 152.875 193.746 152.898 193.589 152.898C192.894 152.898 192.582 152.562 192.582 151.82V146.992H194.16V145.875H192.582V143.914H191.222ZM201.894 152.984C200.917 152.984 200.269 152.477 200.269 151.703C200.269 150.938 200.894 150.453 201.988 150.383L204.159 150.25V150.914C204.159 152.086 203.175 152.984 201.894 152.984ZM201.589 154.141C202.683 154.141 203.714 153.531 204.198 152.602H204.23V154H205.519V148.383C205.519 146.766 204.316 145.734 202.409 145.734C200.488 145.734 199.284 146.812 199.191 148.219H200.503C200.675 147.422 201.331 146.93 202.378 146.93C203.503 146.93 204.159 147.523 204.159 148.516V149.195L201.831 149.328C199.956 149.438 198.886 150.312 198.886 151.703C198.886 153.164 199.972 154.141 201.589 154.141ZM211.351 145.734C210.171 145.734 209.226 146.336 208.726 147.25H208.694V145.875H207.405V156.711H208.765V152.68H208.796C209.28 153.57 210.218 154.141 211.382 154.141C213.429 154.141 214.827 152.484 214.827 149.938C214.827 147.391 213.421 145.734 211.351 145.734ZM211.085 152.945C209.694 152.945 208.757 151.75 208.757 149.938C208.757 148.133 209.694 146.93 211.085 146.93C212.53 146.93 213.437 148.102 213.437 149.938C213.437 151.781 212.53 152.945 211.085 152.945ZM220.307 145.734C219.128 145.734 218.182 146.336 217.682 147.25H217.651V145.875H216.362V156.711H217.722V152.68H217.753C218.237 153.57 219.175 154.141 220.339 154.141C222.386 154.141 223.784 152.484 223.784 149.938C223.784 147.391 222.378 145.734 220.307 145.734ZM220.042 152.945C218.651 152.945 217.714 151.75 217.714 149.938C217.714 148.133 218.651 146.93 220.042 146.93C221.487 146.93 222.393 148.102 222.393 149.938C222.393 151.781 221.487 152.945 220.042 152.945ZM225.389 154H226.749V142.727H225.389V154ZM229.417 157.039C230.885 157.039 231.557 156.469 232.253 154.57L235.448 145.875H234.018L231.768 152.641H231.745L229.495 145.875H228.042L231.042 154.008L230.854 154.578C230.542 155.523 230.12 155.891 229.362 155.891C229.19 155.891 228.979 155.883 228.831 155.852V156.992C228.979 157.023 229.253 157.039 229.417 157.039ZM236.756 154H238.116V145.875H236.756V154ZM237.436 144.508C237.905 144.508 238.288 144.125 238.288 143.664C238.288 143.195 237.905 142.82 237.436 142.82C236.975 142.82 236.592 143.195 236.592 143.664C236.592 144.125 236.975 144.508 237.436 144.508ZM240.112 154H241.471V149.219C241.471 147.844 242.307 146.938 243.588 146.938C244.838 146.938 245.455 147.656 245.455 148.969V154H246.815V148.727C246.815 146.883 245.783 145.734 244.002 145.734C242.744 145.734 241.877 146.297 241.424 147.172H241.393V145.875H240.112V154ZM252.014 152.867C250.615 152.867 249.701 151.727 249.701 149.906C249.701 148.086 250.615 146.93 252.014 146.93C253.428 146.93 254.373 148.117 254.373 149.906C254.373 151.695 253.428 152.867 252.014 152.867ZM252.061 157.062C254.303 157.062 255.732 155.773 255.732 153.836V145.875H254.436V147.242H254.412C253.873 146.297 252.92 145.734 251.772 145.734C249.67 145.734 248.311 147.359 248.311 149.906C248.311 152.43 249.67 154.062 251.74 154.062C252.881 154.062 253.842 153.484 254.342 152.602H254.373V153.883C254.373 155.094 253.522 155.906 252.115 155.906C251.1 155.906 250.295 155.414 250.029 154.672H248.631C248.857 156.055 250.272 157.062 252.061 157.062ZM261.545 154H262.904V146.992H264.56V145.875H262.896V144.977C262.896 144.172 263.248 143.781 263.982 143.781C264.209 143.781 264.435 143.805 264.599 143.828V142.727C264.404 142.695 264.076 142.664 263.771 142.664C262.271 142.664 261.545 143.406 261.545 144.969V145.875H260.412V146.992H261.545V154ZM269.103 154.141C271.345 154.141 272.861 152.523 272.861 149.938C272.861 147.344 271.345 145.734 269.103 145.734C266.853 145.734 265.337 147.344 265.337 149.938C265.337 152.523 266.853 154.141 269.103 154.141ZM269.103 152.945C267.666 152.945 266.72 151.852 266.72 149.938C266.72 148.023 267.666 146.93 269.103 146.93C270.541 146.93 271.478 148.023 271.478 149.938C271.478 151.852 270.541 152.945 269.103 152.945ZM274.396 154H275.755V148.938C275.755 147.789 276.443 147.031 277.497 147.031C277.826 147.031 278.115 147.07 278.224 147.109V145.789C278.115 145.773 277.912 145.734 277.677 145.734C276.724 145.734 275.974 146.305 275.708 147.203H275.677V145.875H274.396V154ZM283.372 143.914V145.875H282.161V146.992H283.372V151.891C283.372 153.453 283.95 154.062 285.443 154.062C285.763 154.062 286.138 154.039 286.302 154V152.859C286.208 152.875 285.896 152.898 285.739 152.898C285.044 152.898 284.732 152.562 284.732 151.82V146.992H286.31V145.875H284.732V143.914H283.372ZM287.993 154H289.353V149.266C289.353 147.859 290.188 146.938 291.54 146.938C292.813 146.938 293.462 147.711 293.462 149V154H294.821V148.75C294.821 146.938 293.743 145.734 291.962 145.734C290.728 145.734 289.837 146.266 289.384 147.172H289.353V142.727H287.993V154ZM299.966 146.914C301.247 146.914 302.098 147.883 302.13 149.242H297.716C297.802 147.891 298.692 146.914 299.966 146.914ZM302.098 151.672C301.872 152.438 301.114 152.961 300.083 152.961C298.622 152.961 297.708 151.938 297.708 150.383V150.305H303.536V149.789C303.536 147.328 302.184 145.734 299.989 145.734C297.747 145.734 296.309 147.445 296.309 149.969C296.309 152.523 297.723 154.141 300.052 154.141C301.825 154.141 303.2 153.094 303.434 151.672H302.098ZM3.3125 166.875H1.95312V175.414C1.95312 176.32 1.63281 176.656 0.75 176.656C0.742188 176.656 0.554688 176.656 0.539062 176.656V177.789C0.554688 177.797 0.773438 177.797 0.796875 177.797C2.53125 177.797 3.3125 177.047 3.3125 175.398V166.875ZM2.63281 165.508C3.10156 165.508 3.48438 165.125 3.48438 164.664C3.48438 164.195 3.10156 163.82 2.63281 163.82C2.17188 163.82 1.78906 164.195 1.78906 164.664C1.78906 165.125 2.17188 165.508 2.63281 165.508ZM8.67563 175.141C10.9178 175.141 12.4334 173.523 12.4334 170.938C12.4334 168.344 10.9178 166.734 8.67563 166.734C6.42563 166.734 4.91 168.344 4.91 170.938C4.91 173.523 6.42563 175.141 8.67563 175.141ZM8.67563 173.945C7.23813 173.945 6.29281 172.852 6.29281 170.938C6.29281 169.023 7.23813 167.93 8.67563 167.93C10.1131 167.93 11.0506 169.023 11.0506 170.938C11.0506 172.852 10.1131 173.945 8.67563 173.945ZM18.0075 175.141C20.0856 175.141 21.4606 173.492 21.4606 170.938C21.4606 168.391 20.0778 166.734 18.0309 166.734C16.8825 166.734 15.9372 167.305 15.4294 168.234H15.3981V163.727H14.0387V175H15.3356V173.625H15.3669C15.8903 174.562 16.82 175.141 18.0075 175.141ZM17.7419 167.93C19.1794 167.93 20.07 169.094 20.07 170.938C20.07 172.797 19.1794 173.945 17.7419 173.945C16.3669 173.945 15.3903 172.75 15.3903 170.938C15.3903 169.133 16.3669 167.93 17.7419 167.93ZM27.1166 178.039C28.5853 178.039 29.2572 177.469 29.9525 175.57L33.1478 166.875H31.7181L29.4681 173.641H29.4447L27.1947 166.875H25.7416L28.7416 175.008L28.5541 175.578C28.2416 176.523 27.8197 176.891 27.0619 176.891C26.89 176.891 26.6791 176.883 26.5306 176.852V177.992C26.6791 178.023 26.9525 178.039 27.1166 178.039ZM37.5187 175.141C39.7609 175.141 41.2766 173.523 41.2766 170.938C41.2766 168.344 39.7609 166.734 37.5187 166.734C35.2687 166.734 33.7531 168.344 33.7531 170.938C33.7531 173.523 35.2687 175.141 37.5187 175.141ZM37.5187 173.945C36.0812 173.945 35.1359 172.852 35.1359 170.938C35.1359 169.023 36.0812 167.93 37.5187 167.93C38.9562 167.93 39.8937 169.023 39.8937 170.938C39.8937 172.852 38.9562 173.945 37.5187 173.945ZM49.4834 166.875H48.1241V171.648C48.1241 173.031 47.3272 173.938 46.0069 173.938C44.7491 173.938 44.1319 173.227 44.1319 171.906V166.875H42.7725V172.148C42.7725 173.992 43.8116 175.141 45.585 175.141C46.835 175.141 47.6787 174.617 48.1631 173.68H48.1944V175H49.4834V166.875ZM57.53 173.984C56.5534 173.984 55.905 173.477 55.905 172.703C55.905 171.938 56.53 171.453 57.6237 171.383L59.7956 171.25V171.914C59.7956 173.086 58.8112 173.984 57.53 173.984ZM57.2253 175.141C58.3191 175.141 59.3503 174.531 59.8347 173.602H59.8659V175H61.155V169.383C61.155 167.766 59.9519 166.734 58.0456 166.734C56.1237 166.734 54.9206 167.812 54.8269 169.219H56.1394C56.3112 168.422 56.9675 167.93 58.0144 167.93C59.1394 167.93 59.7956 168.523 59.7956 169.516V170.195L57.4675 170.328C55.5925 170.438 54.5222 171.312 54.5222 172.703C54.5222 174.164 55.6081 175.141 57.2253 175.141ZM63.0416 175H64.4009V169.938C64.4009 168.789 65.0884 168.031 66.1431 168.031C66.4712 168.031 66.7603 168.07 66.8697 168.109V166.789C66.7603 166.773 66.5572 166.734 66.3228 166.734C65.3697 166.734 64.6197 167.305 64.3541 168.203H64.3228V166.875H63.0416V175ZM71.0062 167.914C72.2875 167.914 73.1391 168.883 73.1703 170.242H68.7562C68.8422 168.891 69.7328 167.914 71.0062 167.914ZM73.1391 172.672C72.9125 173.438 72.1547 173.961 71.1234 173.961C69.6625 173.961 68.7484 172.938 68.7484 171.383V171.305H74.5766V170.789C74.5766 168.328 73.225 166.734 71.0297 166.734C68.7875 166.734 67.35 168.445 67.35 170.969C67.35 173.523 68.7641 175.141 71.0922 175.141C72.8656 175.141 74.2406 174.094 74.475 172.672H73.1391ZM79.6231 175H80.9825V166.875H79.6231V175ZM80.3028 165.508C80.7716 165.508 81.1544 165.125 81.1544 164.664C81.1544 164.195 80.7716 163.82 80.3028 163.82C79.8419 163.82 79.4591 164.195 79.4591 164.664C79.4591 165.125 79.8419 165.508 80.3028 165.508ZM82.9784 175H84.3378V170.219C84.3378 168.844 85.1738 167.938 86.455 167.938C87.705 167.938 88.3222 168.656 88.3222 169.969V175H89.6816V169.727C89.6816 167.883 88.6503 166.734 86.8691 166.734C85.6113 166.734 84.7441 167.297 84.2909 168.172H84.2597V166.875H82.9784V175ZM92.0134 164.914V166.875H90.8025V167.992H92.0134V172.891C92.0134 174.453 92.5916 175.062 94.0837 175.062C94.4041 175.062 94.7791 175.039 94.9431 175V173.859C94.8494 173.875 94.5369 173.898 94.3806 173.898C93.6853 173.898 93.3728 173.562 93.3728 172.82V167.992H94.9509V166.875H93.3728V164.914H92.0134ZM99.5875 167.914C100.869 167.914 101.72 168.883 101.752 170.242H97.3375C97.4234 168.891 98.3141 167.914 99.5875 167.914ZM101.72 172.672C101.494 173.438 100.736 173.961 99.7047 173.961C98.2438 173.961 97.3297 172.938 97.3297 171.383V171.305H103.158V170.789C103.158 168.328 101.806 166.734 99.6109 166.734C97.3688 166.734 95.9313 168.445 95.9313 170.969C95.9313 173.523 97.3453 175.141 99.6734 175.141C101.447 175.141 102.822 174.094 103.056 172.672H101.72ZM104.693 175H106.052V169.938C106.052 168.789 106.74 168.031 107.794 168.031C108.122 168.031 108.412 168.07 108.521 168.109V166.789C108.412 166.773 108.208 166.734 107.974 166.734C107.021 166.734 106.271 167.305 106.005 168.203H105.974V166.875H104.693V175ZM112.658 167.914C113.939 167.914 114.79 168.883 114.822 170.242H110.408C110.493 168.891 111.384 167.914 112.658 167.914ZM114.79 172.672C114.564 173.438 113.806 173.961 112.775 173.961C111.314 173.961 110.4 172.938 110.4 171.383V171.305H116.228V170.789C116.228 168.328 114.876 166.734 112.681 166.734C110.439 166.734 109.001 168.445 109.001 170.969C109.001 173.523 110.415 175.141 112.743 175.141C114.517 175.141 115.892 174.094 116.126 172.672H114.79ZM117.622 169.117C117.622 170.227 118.325 170.961 119.755 171.328L121.185 171.695C122.099 171.938 122.435 172.25 122.435 172.828C122.435 173.562 121.755 174.031 120.653 174.031C119.552 174.031 118.911 173.578 118.763 172.734H117.403C117.544 174.172 118.786 175.141 120.567 175.141C122.466 175.141 123.802 174.141 123.802 172.727C123.802 171.531 123.208 170.938 121.567 170.523L120.31 170.219C119.388 169.984 118.958 169.609 118.958 169.047C118.958 168.336 119.614 167.844 120.607 167.844C121.607 167.844 122.239 168.328 122.333 169.109H123.63C123.567 167.734 122.333 166.734 120.653 166.734C118.864 166.734 117.622 167.727 117.622 169.117ZM125.813 164.914V166.875H124.603V167.992H125.813V172.891C125.813 174.453 126.392 175.062 127.884 175.062C128.204 175.062 128.579 175.039 128.743 175V173.859C128.649 173.875 128.337 173.898 128.181 173.898C127.485 173.898 127.173 173.562 127.173 172.82V167.992H128.751V166.875H127.173V164.914H125.813ZM133.387 167.914C134.669 167.914 135.52 168.883 135.552 170.242H131.137C131.223 168.891 132.114 167.914 133.387 167.914ZM135.52 172.672C135.294 173.438 134.536 173.961 133.505 173.961C132.044 173.961 131.13 172.938 131.13 171.383V171.305H136.958V170.789C136.958 168.328 135.606 166.734 133.411 166.734C131.169 166.734 129.731 168.445 129.731 170.969C129.731 173.523 131.145 175.141 133.473 175.141C135.247 175.141 136.622 174.094 136.856 172.672H135.52ZM141.571 175.141C142.743 175.141 143.673 174.562 144.196 173.625H144.219V175H145.516V163.727H144.157V168.195H144.126C143.641 167.305 142.704 166.734 141.54 166.734C139.493 166.734 138.094 168.391 138.094 170.938C138.094 173.484 139.501 175.141 141.571 175.141ZM141.829 167.93C143.227 167.93 144.165 169.125 144.165 170.938C144.165 172.758 143.227 173.945 141.829 173.945C140.391 173.945 139.485 172.781 139.485 170.938C139.485 169.102 140.391 167.93 141.829 167.93ZM151.024 175H152.383V166.875H151.024V175ZM151.703 165.508C152.172 165.508 152.555 165.125 152.555 164.664C152.555 164.195 152.172 163.82 151.703 163.82C151.242 163.82 150.86 164.195 150.86 164.664C150.86 165.125 151.242 165.508 151.703 165.508ZM154.379 175H155.738V170.219C155.738 168.844 156.574 167.938 157.856 167.938C159.106 167.938 159.723 168.656 159.723 169.969V175H161.082V169.727C161.082 167.883 160.051 166.734 158.27 166.734C157.012 166.734 156.145 167.297 155.692 168.172H155.66V166.875H154.379V175ZM164.125 175.078C164.625 175.078 165.016 174.688 165.016 174.188C165.016 173.688 164.625 173.297 164.125 173.297C163.625 173.297 163.234 173.688 163.234 174.188C163.234 174.688 163.625 175.078 164.125 175.078Z" fill="#6B7280"/>
</svg>
