<svg width="327" height="180" viewBox="0 0 327 180" fill="none" xmlns="http://www.w3.org/2000/svg">
<path d="M5.57812 32V22.5625H15.2656V19.6094H5.57812V12.4688H16.1562V9.45312H2.07812V32H5.57812ZM18.9062 32H22.2812V15.5625H18.9062V32ZM20.5938 13.1562C21.6875 13.1562 22.5625 12.2969 22.5625 11.2344C22.5625 10.1562 21.6875 9.29688 20.5938 9.29688C19.5156 9.29688 18.6406 10.1562 18.6406 11.2344C18.6406 12.2969 19.5156 13.1562 20.5938 13.1562ZM25.7344 32H29.1094V22.4219C29.1094 19.875 30.6406 18.1875 33.0156 18.1875C35.3594 18.1875 36.5156 19.5469 36.5156 22.0156V32H39.9062V21.3594C39.9062 17.5938 37.8281 15.2812 34.2031 15.2812C31.6719 15.2812 29.9219 16.4375 29.0312 18.3125H28.9531V15.5625H25.7344V32ZM49.3438 32.2812C51.7344 32.2812 53.6094 31.0781 54.5781 29.2031H54.6406V32H57.9219V9.45312H54.5312V18.2969H54.4688C53.5469 16.4844 51.6719 15.2969 49.3125 15.2969C45.1875 15.2969 42.4375 18.5938 42.4375 23.7812C42.4375 28.9688 45.1875 32.2812 49.3438 32.2812ZM50.2344 18.1406C52.8281 18.1406 54.5625 20.375 54.5625 23.7812C54.5625 27.2188 52.8281 29.4219 50.2344 29.4219C47.5625 29.4219 45.8906 27.25 45.8906 23.7812C45.8906 20.3281 47.5625 18.1406 50.2344 18.1406ZM73.6406 29.6094C71.8281 29.6094 70.6406 28.6719 70.6406 27.2344C70.6406 25.8281 71.7812 24.9375 73.7969 24.7969L77.8438 24.5469V25.8438C77.8438 27.9844 76 29.6094 73.6406 29.6094ZM72.7031 32.2812C74.8594 32.2812 76.9375 31.125 77.8906 29.2969H77.9688V32H81.2031V20.6719C81.2031 17.375 78.6562 15.2656 74.6719 15.2656C70.6094 15.2656 68.0781 17.4531 67.8906 20.4219H71.0781C71.375 18.9531 72.5938 18.0156 74.5469 18.0156C76.6094 18.0156 77.8438 19.1094 77.8438 20.9375V22.2031L73.3438 22.4688C69.4375 22.6875 67.2344 24.4531 67.2344 27.3281C67.2344 30.2812 69.4844 32.2812 72.7031 32.2812ZM94.4688 15.5625H91.0938V32.7656C91.0938 34.4219 90.4688 35.0469 88.7969 35.0469C88.7344 35.0469 88.375 35.0312 88.3125 35.0312V37.6875C88.4062 37.7188 88.9375 37.7188 89.0938 37.7188C92.7344 37.7188 94.4688 36.125 94.4688 32.7812V15.5625ZM92.7812 13.1562C93.875 13.1562 94.75 12.2969 94.75 11.2344C94.75 10.1562 93.875 9.29688 92.7812 9.29688C91.7031 9.29688 90.8281 10.1562 90.8281 11.2344C90.8281 12.2969 91.7031 13.1562 92.7812 13.1562ZM104.984 32.3125C109.688 32.3125 112.781 29.0781 112.781 23.7812C112.781 18.5 109.672 15.2656 104.984 15.2656C100.297 15.2656 97.1875 18.5 97.1875 23.7812C97.1875 29.0781 100.281 32.3125 104.984 32.3125ZM104.984 29.5312C102.344 29.5312 100.625 27.4375 100.625 23.7812C100.625 20.1406 102.344 18.0469 104.984 18.0469C107.625 18.0469 109.344 20.1406 109.344 23.7812C109.344 27.4375 107.641 29.5312 104.984 29.5312ZM124.141 32.2812C128.312 32.2812 131 29 131 23.7812C131 18.5781 128.297 15.2969 124.156 15.2969C121.828 15.2969 119.953 16.4531 118.969 18.3594H118.891V9.45312H115.516V32H118.797V29.2031H118.859C119.875 31.1094 121.734 32.2812 124.141 32.2812ZM123.234 18.1406C125.891 18.1406 127.531 20.3281 127.531 23.7812C127.531 27.2656 125.891 29.4219 123.234 29.4219C120.672 29.4219 118.875 27.2031 118.875 23.7812C118.875 20.3906 120.672 18.1406 123.234 18.1406ZM135.25 36.6406L137.375 28.3906H133.969L132.562 36.6406H135.25ZM151.828 29.6094C150.016 29.6094 148.828 28.6719 148.828 27.2344C148.828 25.8281 149.969 24.9375 151.984 24.7969L156.031 24.5469V25.8438C156.031 27.9844 154.188 29.6094 151.828 29.6094ZM150.891 32.2812C153.047 32.2812 155.125 31.125 156.078 29.2969H156.156V32H159.391V20.6719C159.391 17.375 156.844 15.2656 152.859 15.2656C148.797 15.2656 146.266 17.4531 146.078 20.4219H149.266C149.562 18.9531 150.781 18.0156 152.734 18.0156C154.797 18.0156 156.031 19.1094 156.031 20.9375V22.2031L151.531 22.4688C147.625 22.6875 145.422 24.4531 145.422 27.3281C145.422 30.2812 147.672 32.2812 150.891 32.2812ZM162.672 32H166.047V22.4219C166.047 19.875 167.578 18.1875 169.953 18.1875C172.297 18.1875 173.453 19.5469 173.453 22.0156V32H176.844V21.3594C176.844 17.5938 174.766 15.2812 171.141 15.2812C168.609 15.2812 166.859 16.4375 165.969 18.3125H165.891V15.5625H162.672V32ZM186.281 32.2812C188.672 32.2812 190.547 31.0781 191.516 29.2031H191.578V32H194.859V9.45312H191.469V18.2969H191.406C190.484 16.4844 188.609 15.2969 186.25 15.2969C182.125 15.2969 179.375 18.5938 179.375 23.7812C179.375 28.9688 182.125 32.2812 186.281 32.2812ZM187.172 18.1406C189.766 18.1406 191.5 20.375 191.5 23.7812C191.5 27.2188 189.766 29.4219 187.172 29.4219C184.5 29.4219 182.828 27.25 182.828 23.7812C182.828 20.3281 184.5 18.1406 187.172 18.1406ZM120.078 80.125C123.5 80.125 125.109 78.8438 126.516 74.8594L132.688 57.5625H129.125L124.953 70.9375H124.906L120.734 57.5625H117.078L123.016 74.0156C123.016 74.0312 122.719 75 122.719 75.0312C122.203 76.7188 121.375 77.375 119.797 77.375C119.516 77.375 118.953 77.375 118.703 77.3125V80.0469C118.953 80.0938 119.812 80.125 120.078 80.125ZM141.266 74.3125C145.969 74.3125 149.062 71.0781 149.062 65.7812C149.062 60.5 145.953 57.2656 141.266 57.2656C136.578 57.2656 133.469 60.5 133.469 65.7812C133.469 71.0781 136.562 74.3125 141.266 74.3125ZM141.266 71.5312C138.625 71.5312 136.906 69.4375 136.906 65.7812C136.906 62.1406 138.625 60.0469 141.266 60.0469C143.906 60.0469 145.625 62.1406 145.625 65.7812C145.625 69.4375 143.922 71.5312 141.266 71.5312ZM165.766 57.5625H162.391V67.1406C162.391 69.7031 160.922 71.3906 158.484 71.3906C156.156 71.3906 154.969 70.0469 154.969 67.5469V57.5625H151.594V68.2031C151.594 71.9688 153.781 74.2969 157.359 74.2969C159.875 74.2969 161.547 73.1875 162.453 71.2188H162.531V74H165.766V57.5625ZM169.109 74H172.484V64.1562C172.484 61.8281 173.828 60.375 176 60.375C176.656 60.375 177.25 60.4531 177.516 60.5625V57.4219C177.266 57.375 176.844 57.2969 176.359 57.2969C174.422 57.2969 172.953 58.4375 172.406 60.3594H172.328V57.5625H169.109V74ZM200.219 63.2188C199.922 59.9844 197.344 57.2656 193.109 57.2656C188.438 57.2656 185.375 60.5625 185.375 65.7812C185.375 71.0938 188.438 74.3125 193.141 74.3125C197.094 74.3125 199.891 71.9375 200.25 68.4375H197C196.609 70.3438 195.25 71.4844 193.172 71.4844C190.547 71.4844 188.812 69.3906 188.812 65.7812C188.812 62.25 190.531 60.0781 193.141 60.0781C195.344 60.0781 196.656 61.4688 197 63.2188H200.219ZM208.391 71.6094C206.578 71.6094 205.391 70.6719 205.391 69.2344C205.391 67.8281 206.531 66.9375 208.547 66.7969L212.594 66.5469V67.8438C212.594 69.9844 210.75 71.6094 208.391 71.6094ZM207.453 74.2812C209.609 74.2812 211.688 73.125 212.641 71.2969H212.719V74H215.953V62.6719C215.953 59.375 213.406 57.2656 209.422 57.2656C205.359 57.2656 202.828 59.4531 202.641 62.4219H205.828C206.125 60.9531 207.344 60.0156 209.297 60.0156C211.359 60.0156 212.594 61.1094 212.594 62.9375V64.2031L208.094 64.4688C204.188 64.6875 201.984 66.4531 201.984 69.3281C201.984 72.2812 204.234 74.2812 207.453 74.2812ZM219.234 74H222.609V64.1562C222.609 61.8281 223.953 60.375 226.125 60.375C226.781 60.375 227.375 60.4531 227.641 60.5625V57.4219C227.391 57.375 226.969 57.2969 226.484 57.2969C224.547 57.2969 223.078 58.4375 222.531 60.3594H222.453V57.5625H219.234V74ZM235.891 59.9844C238.25 59.9844 239.844 61.75 239.922 64.2656H231.703C231.875 61.7812 233.531 59.9844 235.891 59.9844ZM239.906 69.1719C239.453 70.6094 238.031 71.5781 236.109 71.5781C233.406 71.5781 231.688 69.6875 231.688 66.8281V66.625H243.297V65.4688C243.297 60.4844 240.453 57.2656 235.891 57.2656C231.25 57.2656 228.281 60.7031 228.281 65.8594C228.281 71.0469 231.203 74.3125 236.031 74.3125C239.797 74.3125 242.641 72.1719 243.109 69.1719H239.906ZM252.797 59.9844C255.156 59.9844 256.75 61.75 256.828 64.2656H248.609C248.781 61.7812 250.438 59.9844 252.797 59.9844ZM256.812 69.1719C256.359 70.6094 254.938 71.5781 253.016 71.5781C250.312 71.5781 248.594 69.6875 248.594 66.8281V66.625H260.203V65.4688C260.203 60.4844 257.359 57.2656 252.797 57.2656C248.156 57.2656 245.188 60.7031 245.188 65.8594C245.188 71.0469 248.109 74.3125 252.938 74.3125C256.703 74.3125 259.547 72.1719 260.016 69.1719H256.812ZM262.828 74H266.203V64.1562C266.203 61.8281 267.547 60.375 269.719 60.375C270.375 60.375 270.969 60.4531 271.234 60.5625V57.4219C270.984 57.375 270.562 57.2969 270.078 57.2969C268.141 57.2969 266.672 58.4375 266.125 60.3594H266.047V57.5625H262.828V74ZM2.65625 116H6.04688V102.234H9.32812V99.5938H6V98.0469C6 96.5938 6.6875 95.8594 8.15625 95.8594C8.60938 95.8594 9.0625 95.8906 9.39062 95.9531V93.4531C8.95312 93.375 8.1875 93.2969 7.5 93.2969C4.15625 93.2969 2.65625 94.7969 2.65625 97.9844V99.5938H0.390625V102.234H2.65625V116ZM11.9844 116H15.3594V106.156C15.3594 103.828 16.7031 102.375 18.875 102.375C19.5312 102.375 20.125 102.453 20.3906 102.562V99.4219C20.1406 99.375 19.7188 99.2969 19.2344 99.2969C17.2969 99.2969 15.8281 100.438 15.2812 102.359H15.2031V99.5625H11.9844V116ZM28.8281 116.312C33.5312 116.312 36.625 113.078 36.625 107.781C36.625 102.5 33.5156 99.2656 28.8281 99.2656C24.1406 99.2656 21.0312 102.5 21.0312 107.781C21.0312 113.078 24.125 116.312 28.8281 116.312ZM28.8281 113.531C26.1875 113.531 24.4688 111.438 24.4688 107.781C24.4688 104.141 26.1875 102.047 28.8281 102.047C31.4688 102.047 33.1875 104.141 33.1875 107.781C33.1875 111.438 31.4844 113.531 28.8281 113.531ZM39.2344 116H42.6094V105.844C42.6094 103.734 44.0312 102.172 46.0312 102.172C47.9375 102.172 49.1406 103.375 49.1406 105.266V116H52.4531V105.734C52.4531 103.656 53.8438 102.172 55.8438 102.172C57.8438 102.172 58.9844 103.391 58.9844 105.516V116H62.375V104.703C62.375 101.438 60.25 99.2812 57 99.2812C54.6562 99.2812 52.7188 100.5 51.875 102.5H51.7969C51.1406 100.453 49.4844 99.2812 47.2031 99.2812C44.9844 99.2812 43.2656 100.5 42.5312 102.328H42.4531V99.5625H39.2344V116ZM72.1406 116H75.5156V106.422C75.5156 103.875 77.0469 102.188 79.4219 102.188C81.7656 102.188 82.9219 103.547 82.9219 106.016V116H86.3125V105.359C86.3125 101.594 84.2344 99.2812 80.6094 99.2812C78.0781 99.2812 76.3281 100.438 75.4375 102.312H75.3594V99.5625H72.1406V116ZM96.6406 116.312C101.344 116.312 104.438 113.078 104.438 107.781C104.438 102.5 101.328 99.2656 96.6406 99.2656C91.9531 99.2656 88.8438 102.5 88.8438 107.781C88.8438 113.078 91.9375 116.312 96.6406 116.312ZM96.6406 113.531C94 113.531 92.2812 111.438 92.2812 107.781C92.2812 104.141 94 102.047 96.6406 102.047C99.2812 102.047 101 104.141 101 107.781C101 111.438 99.2969 113.531 96.6406 113.531ZM128.672 99.5625H125.328L122.328 112.5H122.25L118.812 99.5625H115.562L112.141 112.5H112.078L109.078 99.5625H105.703L110.219 116H113.703L117.125 103.688H117.203L120.656 116H124.172L128.672 99.5625ZM144.297 116.312C149 116.312 152.094 113.078 152.094 107.781C152.094 102.5 148.984 99.2656 144.297 99.2656C139.609 99.2656 136.5 102.5 136.5 107.781C136.5 113.078 139.594 116.312 144.297 116.312ZM144.297 113.531C141.656 113.531 139.938 111.438 139.938 107.781C139.938 104.141 141.656 102.047 144.297 102.047C146.938 102.047 148.656 104.141 148.656 107.781C148.656 111.438 146.953 113.531 144.297 113.531ZM154.703 116H158.078V106.422C158.078 103.875 159.609 102.188 161.984 102.188C164.328 102.188 165.484 103.547 165.484 106.016V116H168.875V105.359C168.875 101.594 166.797 99.2812 163.172 99.2812C160.641 99.2812 158.891 100.438 158 102.312H157.922V99.5625H154.703V116Z" fill="#111827"/>
<path d="M204.531 20.2188C204.531 22.5156 206.031 24.0625 209 24.7812L211.938 25.5C213.656 25.9375 214.281 26.5156 214.281 27.5625C214.281 28.8906 213.031 29.7344 211 29.7344C208.938 29.7344 207.719 28.8594 207.453 27.2812H204.109C204.375 30.2969 206.953 32.3125 210.844 32.3125C214.875 32.3125 217.672 30.25 217.672 27.25C217.672 24.8281 216.422 23.5781 213.109 22.7812L210.344 22.1406C208.641 21.7188 207.828 21.0312 207.828 20.0156C207.828 18.7188 209.047 17.8281 210.875 17.8281C212.766 17.8281 213.969 18.75 214.125 20.2344H217.297C217.188 17.3125 214.625 15.2656 210.969 15.2656C207.125 15.2656 204.531 17.2812 204.531 20.2188ZM221.281 11.6719V15.5625H218.891V18.2344H221.281V27.6719C221.281 30.8438 222.578 32.1094 225.906 32.1094C226.656 32.1094 227.406 32.0469 227.781 31.9531V29.2812C227.562 29.3281 227.016 29.3594 226.672 29.3594C225.297 29.3594 224.672 28.7188 224.672 27.2969V18.2344H227.797V15.5625H224.672V11.6719H221.281ZM236.078 29.6094C234.266 29.6094 233.078 28.6719 233.078 27.2344C233.078 25.8281 234.219 24.9375 236.234 24.7969L240.281 24.5469V25.8438C240.281 27.9844 238.438 29.6094 236.078 29.6094ZM235.141 32.2812C237.297 32.2812 239.375 31.125 240.328 29.2969H240.406V32H243.641V20.6719C243.641 17.375 241.094 15.2656 237.109 15.2656C233.047 15.2656 230.516 17.4531 230.328 20.4219H233.516C233.812 18.9531 235.031 18.0156 236.984 18.0156C239.047 18.0156 240.281 19.1094 240.281 20.9375V22.2031L235.781 22.4688C231.875 22.6875 229.672 24.4531 229.672 27.3281C229.672 30.2812 231.922 32.2812 235.141 32.2812ZM246.922 32H250.297V22.1562C250.297 19.8281 251.641 18.375 253.812 18.375C254.469 18.375 255.062 18.4531 255.328 18.5625V15.4219C255.078 15.375 254.656 15.2969 254.172 15.2969C252.234 15.2969 250.766 16.4375 250.219 18.3594H250.141V15.5625H246.922V32ZM258.406 11.6719V15.5625H256.016V18.2344H258.406V27.6719C258.406 30.8438 259.703 32.1094 263.031 32.1094C263.781 32.1094 264.531 32.0469 264.906 31.9531V29.2812C264.688 29.3281 264.141 29.3594 263.797 29.3594C262.422 29.3594 261.797 28.7188 261.797 27.2969V18.2344H264.922V15.5625H261.797V11.6719H258.406ZM10.4219 74.2812C14.5938 74.2812 17.2812 71 17.2812 65.7812C17.2812 60.5781 14.5781 57.2969 10.4375 57.2969C8.10938 57.2969 6.23438 58.4531 5.25 60.3594H5.17188V51.4531H1.79688V74H5.07812V71.2031H5.14062C6.15625 73.1094 8.01562 74.2812 10.4219 74.2812ZM9.51562 60.1406C12.1719 60.1406 13.8125 62.3281 13.8125 65.7812C13.8125 69.2656 12.1719 71.4219 9.51562 71.4219C6.95312 71.4219 5.15625 69.2031 5.15625 65.7812C5.15625 62.3906 6.95312 60.1406 9.51562 60.1406ZM34.0156 57.5625H30.6406V67.1406C30.6406 69.7031 29.1719 71.3906 26.7344 71.3906C24.4062 71.3906 23.2188 70.0469 23.2188 67.5469V57.5625H19.8438V68.2031C19.8438 71.9688 22.0312 74.2969 25.6094 74.2969C28.125 74.2969 29.7969 73.1875 30.7031 71.2188H30.7812V74H34.0156V57.5625ZM37.4688 74H40.8438V57.5625H37.4688V74ZM39.1562 55.1562C40.25 55.1562 41.125 54.2969 41.125 53.2344C41.125 52.1562 40.25 51.2969 39.1562 51.2969C38.0781 51.2969 37.2031 52.1562 37.2031 53.2344C37.2031 54.2969 38.0781 55.1562 39.1562 55.1562ZM44.4219 74H47.7969V51.4531H44.4219V74ZM57.4375 74.2812C59.8281 74.2812 61.7031 73.0781 62.6719 71.2031H62.7344V74H66.0156V51.4531H62.625V60.2969H62.5625C61.6406 58.4844 59.7656 57.2969 57.4062 57.2969C53.2812 57.2969 50.5312 60.5938 50.5312 65.7812C50.5312 70.9688 53.2812 74.2812 57.4375 74.2812ZM58.3281 60.1406C60.9219 60.1406 62.6562 62.375 62.6562 65.7812C62.6562 69.2188 60.9219 71.4219 58.3281 71.4219C55.6562 71.4219 53.9844 69.25 53.9844 65.7812C53.9844 62.3281 55.6562 60.1406 58.3281 60.1406ZM69.5938 74H72.9688V57.5625H69.5938V74ZM71.2812 55.1562C72.375 55.1562 73.25 54.2969 73.25 53.2344C73.25 52.1562 72.375 51.2969 71.2812 51.2969C70.2031 51.2969 69.3281 52.1562 69.3281 53.2344C69.3281 54.2969 70.2031 55.1562 71.2812 55.1562ZM76.4219 74H79.7969V64.4219C79.7969 61.875 81.3281 60.1875 83.7031 60.1875C86.0469 60.1875 87.2031 61.5469 87.2031 64.0156V74H90.5938V63.3594C90.5938 59.5938 88.5156 57.2812 84.8906 57.2812C82.3594 57.2812 80.6094 58.4375 79.7188 60.3125H79.6406V57.5625H76.4219V74ZM100.859 71.2656C98.2656 71.2656 96.5781 69.1719 96.5781 65.7344C96.5781 62.3125 98.2656 60.1406 100.859 60.1406C103.5 60.1406 105.234 62.3594 105.234 65.7344C105.234 69.125 103.5 71.2656 100.859 71.2656ZM100.891 80.1875C105.578 80.1875 108.609 77.625 108.609 73.7031V57.5625H105.328V60.375H105.266C104.266 58.4688 102.359 57.2969 100.031 57.2969C95.8125 57.2969 93.125 60.5469 93.125 65.7188C93.125 70.8438 95.8281 74.0625 99.9531 74.0625C102.297 74.0625 104.234 72.8906 105.156 71.1094H105.219V73.8125C105.219 76.0625 103.656 77.5625 101.016 77.5625C99.0938 77.5625 97.5938 76.6562 97.1094 75.2812H93.7188C94.1406 78.125 97.0156 80.1875 100.891 80.1875Z" fill="#3366FF"/>
<path d="M8.07812 152.734H2.5V148.859H7.78906V147.609H2.5V143.992H8.07812V142.727H1.09375V154H8.07812V152.734ZM12.7616 150.906L14.7069 154H16.2147L13.5116 149.883L16.2537 145.875H14.7381L12.8084 148.922H12.7772L10.8241 145.875H9.30844L12.0272 149.938L9.26156 154H10.7694L12.7303 150.906H12.7616ZM21.5075 145.734C20.3278 145.734 19.3825 146.336 18.8825 147.25H18.8512V145.875H17.5622V156.711H18.9216V152.68H18.9528C19.4372 153.57 20.3747 154.141 21.5387 154.141C23.5856 154.141 24.9841 152.484 24.9841 149.938C24.9841 147.391 23.5778 145.734 21.5075 145.734ZM21.2419 152.945C19.8512 152.945 18.9137 151.75 18.9137 149.938C18.9137 148.133 19.8512 146.93 21.2419 146.93C22.6872 146.93 23.5934 148.102 23.5934 149.938C23.5934 151.781 22.6872 152.945 21.2419 152.945ZM26.5894 154H27.9487V142.727H26.5894V154ZM33.3119 154.141C35.5541 154.141 37.0697 152.523 37.0697 149.938C37.0697 147.344 35.5541 145.734 33.3119 145.734C31.0619 145.734 29.5462 147.344 29.5462 149.938C29.5462 152.523 31.0619 154.141 33.3119 154.141ZM33.3119 152.945C31.8744 152.945 30.9291 151.852 30.9291 149.938C30.9291 148.023 31.8744 146.93 33.3119 146.93C34.7494 146.93 35.6869 148.023 35.6869 149.938C35.6869 151.852 34.7494 152.945 33.3119 152.945ZM38.6047 154H39.9641V148.938C39.9641 147.789 40.6516 147.031 41.7062 147.031C42.0344 147.031 42.3234 147.07 42.4328 147.109V145.789C42.3234 145.773 42.1203 145.734 41.8859 145.734C40.9328 145.734 40.1828 146.305 39.9172 147.203H39.8859V145.875H38.6047V154ZM46.5694 146.914C47.8506 146.914 48.7022 147.883 48.7334 149.242H44.3194C44.4053 147.891 45.2959 146.914 46.5694 146.914ZM48.7022 151.672C48.4756 152.438 47.7178 152.961 46.6866 152.961C45.2256 152.961 44.3116 151.938 44.3116 150.383V150.305H50.1397V149.789C50.1397 147.328 48.7881 145.734 46.5928 145.734C44.3506 145.734 42.9131 147.445 42.9131 149.969C42.9131 152.523 44.3272 154.141 46.6553 154.141C48.4287 154.141 49.8037 153.094 50.0381 151.672H48.7022ZM58.4831 154.141C60.7253 154.141 62.2409 152.523 62.2409 149.938C62.2409 147.344 60.7253 145.734 58.4831 145.734C56.2331 145.734 54.7175 147.344 54.7175 149.938C54.7175 152.523 56.2331 154.141 58.4831 154.141ZM58.4831 152.945C57.0456 152.945 56.1003 151.852 56.1003 149.938C56.1003 148.023 57.0456 146.93 58.4831 146.93C59.9206 146.93 60.8581 148.023 60.8581 149.938C60.8581 151.852 59.9206 152.945 58.4831 152.945ZM70.2056 145.875H68.7916L66.5416 152.555H66.5103L64.2681 145.875H62.8384L65.8306 154H67.2212L70.2056 145.875ZM74.4594 146.914C75.7406 146.914 76.5922 147.883 76.6234 149.242H72.2094C72.2953 147.891 73.1859 146.914 74.4594 146.914ZM76.5922 151.672C76.3656 152.438 75.6078 152.961 74.5766 152.961C73.1156 152.961 72.2016 151.938 72.2016 150.383V150.305H78.0297V149.789C78.0297 147.328 76.6781 145.734 74.4828 145.734C72.2406 145.734 70.8031 147.445 70.8031 149.969C70.8031 152.523 72.2172 154.141 74.5453 154.141C76.3187 154.141 77.6937 153.094 77.9281 151.672H76.5922ZM79.5647 154H80.9241V148.938C80.9241 147.789 81.6116 147.031 82.6663 147.031C82.9944 147.031 83.2834 147.07 83.3928 147.109V145.789C83.2834 145.773 83.0803 145.734 82.8459 145.734C81.8928 145.734 81.1428 146.305 80.8772 147.203H80.8459V145.875H79.5647V154ZM88.0644 145.977V145.984H89.4238V145.977C89.4238 144.719 90.4238 143.766 91.7441 143.766C92.9863 143.766 93.9784 144.633 93.9784 145.719C93.9784 146.656 93.6191 147.258 92.1034 148.852L88.1347 153.031V154H95.5722V152.75H90.08V152.719L92.9316 149.773C94.8144 147.828 95.3847 146.891 95.3847 145.633C95.3847 143.906 93.7988 142.539 91.7831 142.539C89.6581 142.539 88.0644 144.008 88.0644 145.977ZM101.232 154.188C103.584 154.188 105.248 152.602 105.248 150.336C105.248 148.148 103.685 146.562 101.521 146.562C100.443 146.562 99.5056 146.969 98.9978 147.648H98.9666L99.3103 143.977H104.607V142.727H98.1541L97.5369 149.039H98.8572C99.3181 148.25 100.217 147.773 101.271 147.773C102.771 147.773 103.842 148.859 103.842 150.375C103.842 151.891 102.779 152.953 101.248 152.953C99.8962 152.953 98.8728 152.125 98.7478 150.922H97.365C97.4822 152.844 99.0759 154.188 101.232 154.188ZM107.775 156.242L108.845 152.266H107.4L106.642 156.242H107.775ZM114.841 154.188C117.599 154.188 119.208 151.969 119.208 148.172C119.208 146.945 119.029 145.93 118.654 145.062C117.966 143.445 116.622 142.531 114.927 142.531C112.615 142.531 110.935 144.156 110.935 146.383C110.935 148.523 112.529 150.109 114.677 150.109C116.115 150.109 117.349 149.383 117.826 148.266C117.833 148.266 117.833 148.266 117.841 148.266H117.849C117.81 151.258 116.732 152.961 114.857 152.961C113.74 152.961 112.826 152.289 112.529 151.266H111.099C111.443 153.031 112.919 154.188 114.841 154.188ZM114.919 148.875C113.443 148.875 112.357 147.805 112.357 146.336C112.357 144.922 113.497 143.797 114.943 143.797C116.396 143.797 117.521 144.93 117.521 146.375C117.521 147.812 116.412 148.875 114.919 148.875ZM120.767 145.977V145.984H122.126V145.977C122.126 144.719 123.126 143.766 124.447 143.766C125.689 143.766 126.681 144.633 126.681 145.719C126.681 146.656 126.322 147.258 124.806 148.852L120.837 153.031V154H128.275V152.75H122.783V152.719L125.634 149.773C127.517 147.828 128.087 146.891 128.087 145.633C128.087 143.906 126.501 142.539 124.486 142.539C122.361 142.539 120.767 144.008 120.767 145.977ZM135.028 154H136.388V151.656H137.982V150.422H136.388V142.727H134.31C131.646 146.547 130.325 148.602 129.364 150.383V151.656H135.028V154ZM130.755 150.391C131.646 148.828 132.872 146.945 135.005 143.898H135.028V150.422H130.755V150.391ZM145.606 152.984C144.63 152.984 143.981 152.477 143.981 151.703C143.981 150.938 144.606 150.453 145.7 150.383L147.872 150.25V150.914C147.872 152.086 146.887 152.984 145.606 152.984ZM145.302 154.141C146.395 154.141 147.427 153.531 147.911 152.602H147.942V154H149.231V148.383C149.231 146.766 148.028 145.734 146.122 145.734C144.2 145.734 142.997 146.812 142.903 148.219H144.216C144.387 147.422 145.044 146.93 146.091 146.93C147.216 146.93 147.872 147.523 147.872 148.516V149.195L145.544 149.328C143.669 149.438 142.598 150.312 142.598 151.703C142.598 153.164 143.684 154.141 145.302 154.141ZM157.782 145.875H156.368L154.118 152.555H154.087L151.844 145.875H150.415L153.407 154H154.798L157.782 145.875ZM161.536 152.984C160.559 152.984 159.911 152.477 159.911 151.703C159.911 150.938 160.536 150.453 161.629 150.383L163.801 150.25V150.914C163.801 152.086 162.817 152.984 161.536 152.984ZM161.231 154.141C162.325 154.141 163.356 153.531 163.84 152.602H163.872V154H165.161V148.383C165.161 146.766 163.958 145.734 162.051 145.734C160.129 145.734 158.926 146.812 158.833 148.219H160.145C160.317 147.422 160.973 146.93 162.02 146.93C163.145 146.93 163.801 147.523 163.801 148.516V149.195L161.473 149.328C159.598 149.438 158.528 150.312 158.528 151.703C158.528 153.164 159.614 154.141 161.231 154.141ZM167.117 154H168.477V145.875H167.117V154ZM167.797 144.508C168.266 144.508 168.649 144.125 168.649 143.664C168.649 143.195 168.266 142.82 167.797 142.82C167.336 142.82 166.953 143.195 166.953 143.664C166.953 144.125 167.336 144.508 167.797 144.508ZM170.543 154H171.902V142.727H170.543V154ZM176.578 152.984C175.602 152.984 174.953 152.477 174.953 151.703C174.953 150.938 175.578 150.453 176.672 150.383L178.844 150.25V150.914C178.844 152.086 177.859 152.984 176.578 152.984ZM176.273 154.141C177.367 154.141 178.398 153.531 178.883 152.602H178.914V154H180.203V148.383C180.203 146.766 179 145.734 177.094 145.734C175.172 145.734 173.969 146.812 173.875 148.219H175.188C175.359 147.422 176.016 146.93 177.062 146.93C178.188 146.93 178.844 147.523 178.844 148.516V149.195L176.516 149.328C174.641 149.438 173.57 150.312 173.57 151.703C173.57 153.164 174.656 154.141 176.273 154.141ZM186.129 154.141C188.207 154.141 189.582 152.492 189.582 149.938C189.582 147.391 188.199 145.734 186.152 145.734C185.004 145.734 184.058 146.305 183.551 147.234H183.519V142.727H182.16V154H183.457V152.625H183.488C184.012 153.562 184.941 154.141 186.129 154.141ZM185.863 146.93C187.301 146.93 188.191 148.094 188.191 149.938C188.191 151.797 187.301 152.945 185.863 152.945C184.488 152.945 183.512 151.75 183.512 149.938C183.512 148.133 184.488 146.93 185.863 146.93ZM191.195 154H192.554V142.727H191.195V154ZM197.808 146.914C199.089 146.914 199.941 147.883 199.972 149.242H195.558C195.644 147.891 196.535 146.914 197.808 146.914ZM199.941 151.672C199.714 152.438 198.957 152.961 197.925 152.961C196.464 152.961 195.55 151.938 195.55 150.383V150.305H201.378V149.789C201.378 147.328 200.027 145.734 197.832 145.734C195.589 145.734 194.152 147.445 194.152 149.969C194.152 152.523 195.566 154.141 197.894 154.141C199.667 154.141 201.042 153.094 201.277 151.672H199.941ZM207.784 145.875H206.425V154.414C206.425 155.32 206.105 155.656 205.222 155.656C205.214 155.656 205.027 155.656 205.011 155.656V156.789C205.027 156.797 205.245 156.797 205.269 156.797C207.003 156.797 207.784 156.047 207.784 154.398V145.875ZM207.105 144.508C207.573 144.508 207.956 144.125 207.956 143.664C207.956 143.195 207.573 142.82 207.105 142.82C206.644 142.82 206.261 143.195 206.261 143.664C206.261 144.125 206.644 144.508 207.105 144.508ZM213.148 154.141C215.39 154.141 216.905 152.523 216.905 149.938C216.905 147.344 215.39 145.734 213.148 145.734C210.898 145.734 209.382 147.344 209.382 149.938C209.382 152.523 210.898 154.141 213.148 154.141ZM213.148 152.945C211.71 152.945 210.765 151.852 210.765 149.938C210.765 148.023 211.71 146.93 213.148 146.93C214.585 146.93 215.523 148.023 215.523 149.938C215.523 151.852 214.585 152.945 213.148 152.945ZM222.479 154.141C224.557 154.141 225.932 152.492 225.932 149.938C225.932 147.391 224.55 145.734 222.503 145.734C221.354 145.734 220.409 146.305 219.901 147.234H219.87V142.727H218.511V154H219.807V152.625H219.839C220.362 153.562 221.292 154.141 222.479 154.141ZM222.214 146.93C223.651 146.93 224.542 148.094 224.542 149.938C224.542 151.797 223.651 152.945 222.214 152.945C220.839 152.945 219.862 151.75 219.862 149.938C219.862 148.133 220.839 146.93 222.214 146.93ZM230.917 154H232.276V148.938C232.276 147.789 232.963 147.031 234.018 147.031C234.346 147.031 234.635 147.07 234.745 147.109V145.789C234.635 145.773 234.432 145.734 234.198 145.734C233.245 145.734 232.495 146.305 232.229 147.203H232.198V145.875H230.917V154ZM238.991 154.141C241.233 154.141 242.748 152.523 242.748 149.938C242.748 147.344 241.233 145.734 238.991 145.734C236.741 145.734 235.225 147.344 235.225 149.938C235.225 152.523 236.741 154.141 238.991 154.141ZM238.991 152.945C237.553 152.945 236.608 151.852 236.608 149.938C236.608 148.023 237.553 146.93 238.991 146.93C240.428 146.93 241.366 148.023 241.366 149.938C241.366 151.852 240.428 152.945 238.991 152.945ZM244.354 154H245.713V142.727H244.354V154ZM250.967 146.914C252.248 146.914 253.1 147.883 253.131 149.242H248.717C248.803 147.891 249.693 146.914 250.967 146.914ZM253.1 151.672C252.873 152.438 252.115 152.961 251.084 152.961C249.623 152.961 248.709 151.938 248.709 150.383V150.305H254.537V149.789C254.537 147.328 253.186 145.734 250.99 145.734C248.748 145.734 247.311 147.445 247.311 149.969C247.311 152.523 248.725 154.141 251.053 154.141C252.826 154.141 254.201 153.094 254.436 151.672H253.1ZM255.932 148.117C255.932 149.227 256.635 149.961 258.064 150.328L259.494 150.695C260.408 150.938 260.744 151.25 260.744 151.828C260.744 152.562 260.064 153.031 258.963 153.031C257.861 153.031 257.221 152.578 257.072 151.734H255.713C255.853 153.172 257.096 154.141 258.877 154.141C260.775 154.141 262.111 153.141 262.111 151.727C262.111 150.531 261.518 149.938 259.877 149.523L258.619 149.219C257.697 148.984 257.268 148.609 257.268 148.047C257.268 147.336 257.924 146.844 258.916 146.844C259.916 146.844 260.549 147.328 260.643 148.109H261.939C261.877 146.734 260.643 145.734 258.963 145.734C257.174 145.734 255.932 146.727 255.932 148.117ZM269.806 152.984C268.83 152.984 268.181 152.477 268.181 151.703C268.181 150.938 268.806 150.453 269.9 150.383L272.072 150.25V150.914C272.072 152.086 271.087 152.984 269.806 152.984ZM269.502 154.141C270.595 154.141 271.627 153.531 272.111 152.602H272.142V154H273.431V148.383C273.431 146.766 272.228 145.734 270.322 145.734C268.4 145.734 267.197 146.812 267.103 148.219H268.416C268.587 147.422 269.244 146.93 270.291 146.93C271.416 146.93 272.072 147.523 272.072 148.516V149.195L269.744 149.328C267.869 149.438 266.798 150.312 266.798 151.703C266.798 153.164 267.884 154.141 269.502 154.141ZM275.318 154H276.677V149.219C276.677 147.844 277.513 146.938 278.794 146.938C280.044 146.938 280.662 147.656 280.662 148.969V154H282.021V148.727C282.021 146.883 280.99 145.734 279.208 145.734C277.951 145.734 277.083 146.297 276.63 147.172H276.599V145.875H275.318V154ZM286.993 154.141C288.165 154.141 289.095 153.562 289.618 152.625H289.642V154H290.939V142.727H289.579V147.195H289.548C289.064 146.305 288.126 145.734 286.962 145.734C284.915 145.734 283.517 147.391 283.517 149.938C283.517 152.484 284.923 154.141 286.993 154.141ZM287.251 146.93C288.65 146.93 289.587 148.125 289.587 149.938C289.587 151.758 288.65 152.945 287.251 152.945C285.814 152.945 284.908 151.781 284.908 149.938C284.908 148.102 285.814 146.93 287.251 146.93ZM7.55469 166.875H6.19531V171.648C6.19531 173.031 5.39844 173.938 4.07812 173.938C2.82031 173.938 2.20312 173.227 2.20312 171.906V166.875H0.84375V172.148C0.84375 173.992 1.88281 175.141 3.65625 175.141C4.90625 175.141 5.75 174.617 6.23438 173.68H6.26562V175H7.55469V166.875ZM13.4256 166.734C12.2459 166.734 11.3006 167.336 10.8006 168.25H10.7694V166.875H9.48031V177.711H10.8397V173.68H10.8709C11.3553 174.57 12.2928 175.141 13.4569 175.141C15.5037 175.141 16.9022 173.484 16.9022 170.938C16.9022 168.391 15.4959 166.734 13.4256 166.734ZM13.16 173.945C11.7694 173.945 10.8319 172.75 10.8319 170.938C10.8319 169.133 11.7694 167.93 13.16 167.93C14.6053 167.93 15.5116 169.102 15.5116 170.938C15.5116 172.781 14.6053 173.945 13.16 173.945ZM21.7419 173.867C20.3434 173.867 19.4294 172.727 19.4294 170.906C19.4294 169.086 20.3434 167.93 21.7419 167.93C23.1559 167.93 24.1012 169.117 24.1012 170.906C24.1012 172.695 23.1559 173.867 21.7419 173.867ZM21.7887 178.062C24.0309 178.062 25.4606 176.773 25.4606 174.836V166.875H24.1637V168.242H24.1403C23.6012 167.297 22.6481 166.734 21.4997 166.734C19.3981 166.734 18.0387 168.359 18.0387 170.906C18.0387 173.43 19.3981 175.062 21.4684 175.062C22.6091 175.062 23.57 174.484 24.07 173.602H24.1012V174.883C24.1012 176.094 23.2497 176.906 21.8434 176.906C20.8278 176.906 20.0231 176.414 19.7575 175.672H18.3591C18.5856 177.055 19.9997 178.062 21.7887 178.062ZM27.3941 175H28.7534V169.938C28.7534 168.789 29.4409 168.031 30.4956 168.031C30.8237 168.031 31.1128 168.07 31.2222 168.109V166.789C31.1128 166.773 30.9097 166.734 30.6753 166.734C29.7222 166.734 28.9722 167.305 28.7066 168.203H28.6753V166.875H27.3941V175ZM35.015 173.984C34.0384 173.984 33.39 173.477 33.39 172.703C33.39 171.938 34.015 171.453 35.1087 171.383L37.2806 171.25V171.914C37.2806 173.086 36.2962 173.984 35.015 173.984ZM34.7103 175.141C35.8041 175.141 36.8353 174.531 37.3197 173.602H37.3509V175H38.64V169.383C38.64 167.766 37.4369 166.734 35.5306 166.734C33.6087 166.734 32.4056 167.812 32.3119 169.219H33.6244C33.7962 168.422 34.4525 167.93 35.4994 167.93C36.6244 167.93 37.2806 168.523 37.2806 169.516V170.195L34.9525 170.328C33.0775 170.438 32.0072 171.312 32.0072 172.703C32.0072 174.164 33.0931 175.141 34.7103 175.141ZM43.6047 175.141C44.7766 175.141 45.7062 174.562 46.2297 173.625H46.2531V175H47.55V163.727H46.1906V168.195H46.1594C45.675 167.305 44.7375 166.734 43.5734 166.734C41.5266 166.734 40.1281 168.391 40.1281 170.938C40.1281 173.484 41.5344 175.141 43.6047 175.141ZM43.8625 167.93C45.2609 167.93 46.1984 169.125 46.1984 170.938C46.1984 172.758 45.2609 173.945 43.8625 173.945C42.425 173.945 41.5187 172.781 41.5187 170.938C41.5187 169.102 42.425 167.93 43.8625 167.93ZM52.8037 167.914C54.085 167.914 54.9366 168.883 54.9678 170.242H50.5537C50.6397 168.891 51.5303 167.914 52.8037 167.914ZM54.9366 172.672C54.71 173.438 53.9522 173.961 52.9209 173.961C51.46 173.961 50.5459 172.938 50.5459 171.383V171.305H56.3741V170.789C56.3741 168.328 55.0225 166.734 52.8272 166.734C50.585 166.734 49.1475 168.445 49.1475 170.969C49.1475 173.523 50.5616 175.141 52.8897 175.141C54.6631 175.141 56.0381 174.094 56.2725 172.672H54.9366ZM62.0222 178.039C63.4909 178.039 64.1628 177.469 64.8581 175.57L68.0534 166.875H66.6237L64.3737 173.641H64.3503L62.1003 166.875H60.6472L63.6472 175.008L63.4597 175.578C63.1472 176.523 62.7253 176.891 61.9675 176.891C61.7956 176.891 61.5847 176.883 61.4362 176.852V177.992C61.5847 178.023 61.8581 178.039 62.0222 178.039ZM72.4244 175.141C74.6666 175.141 76.1822 173.523 76.1822 170.938C76.1822 168.344 74.6666 166.734 72.4244 166.734C70.1744 166.734 68.6588 168.344 68.6588 170.938C68.6588 173.523 70.1744 175.141 72.4244 175.141ZM72.4244 173.945C70.9869 173.945 70.0416 172.852 70.0416 170.938C70.0416 169.023 70.9869 167.93 72.4244 167.93C73.8619 167.93 74.7994 169.023 74.7994 170.938C74.7994 172.852 73.8619 173.945 72.4244 173.945ZM84.3891 166.875H83.0297V171.648C83.0297 173.031 82.2328 173.938 80.9125 173.938C79.6547 173.938 79.0375 173.227 79.0375 171.906V166.875H77.6781V172.148C77.6781 173.992 78.7172 175.141 80.4906 175.141C81.7406 175.141 82.5844 174.617 83.0687 173.68H83.1V175H84.3891V166.875ZM86.3147 175H87.6741V169.938C87.6741 168.789 88.3616 168.031 89.4163 168.031C89.7444 168.031 90.0334 168.07 90.1428 168.109V166.789C90.0334 166.773 89.8303 166.734 89.5959 166.734C88.6428 166.734 87.8928 167.305 87.6272 168.203H87.5959V166.875H86.3147V175ZM98.2206 175.141C100.463 175.141 101.978 173.523 101.978 170.938C101.978 168.344 100.463 166.734 98.2206 166.734C95.9706 166.734 94.455 168.344 94.455 170.938C94.455 173.523 95.9706 175.141 98.2206 175.141ZM98.2206 173.945C96.7831 173.945 95.8378 172.852 95.8378 170.938C95.8378 169.023 96.7831 167.93 98.2206 167.93C99.6581 167.93 100.596 169.023 100.596 170.938C100.596 172.852 99.6581 173.945 98.2206 173.945ZM107.459 166.734C106.279 166.734 105.334 167.336 104.834 168.25H104.802V166.875H103.513V177.711H104.873V173.68H104.904C105.388 174.57 106.326 175.141 107.49 175.141C109.537 175.141 110.935 173.484 110.935 170.938C110.935 168.391 109.529 166.734 107.459 166.734ZM107.193 173.945C105.802 173.945 104.865 172.75 104.865 170.938C104.865 169.133 105.802 167.93 107.193 167.93C108.638 167.93 109.545 169.102 109.545 170.938C109.545 172.781 108.638 173.945 107.193 173.945ZM115.728 167.914C117.009 167.914 117.861 168.883 117.892 170.242H113.478C113.564 168.891 114.455 167.914 115.728 167.914ZM117.861 172.672C117.634 173.438 116.877 173.961 115.845 173.961C114.384 173.961 113.47 172.938 113.47 171.383V171.305H119.298V170.789C119.298 168.328 117.947 166.734 115.752 166.734C113.509 166.734 112.072 168.445 112.072 170.969C112.072 173.523 113.486 175.141 115.814 175.141C117.588 175.141 118.963 174.094 119.197 172.672H117.861ZM120.833 175H122.193V169.938C122.193 168.789 122.88 168.031 123.935 168.031C124.263 168.031 124.552 168.07 124.662 168.109V166.789C124.552 166.773 124.349 166.734 124.115 166.734C123.162 166.734 122.412 167.305 122.146 168.203H122.115V166.875H120.833V175ZM128.454 173.984C127.478 173.984 126.829 173.477 126.829 172.703C126.829 171.938 127.454 171.453 128.548 171.383L130.72 171.25V171.914C130.72 173.086 129.736 173.984 128.454 173.984ZM128.15 175.141C129.243 175.141 130.275 174.531 130.759 173.602H130.79V175H132.079V169.383C132.079 167.766 130.876 166.734 128.97 166.734C127.048 166.734 125.845 167.812 125.751 169.219H127.064C127.236 168.422 127.892 167.93 128.939 167.93C130.064 167.93 130.72 168.523 130.72 169.516V170.195L128.392 170.328C126.517 170.438 125.447 171.312 125.447 172.703C125.447 174.164 126.533 175.141 128.15 175.141ZM134.403 164.914V166.875H133.193V167.992H134.403V172.891C134.403 174.453 134.982 175.062 136.474 175.062C136.794 175.062 137.169 175.039 137.333 175V173.859C137.239 173.875 136.927 173.898 136.771 173.898C136.075 173.898 135.763 173.562 135.763 172.82V167.992H137.341V166.875H135.763V164.914H134.403ZM142.087 175.141C144.329 175.141 145.845 173.523 145.845 170.938C145.845 168.344 144.329 166.734 142.087 166.734C139.837 166.734 138.321 168.344 138.321 170.938C138.321 173.523 139.837 175.141 142.087 175.141ZM142.087 173.945C140.649 173.945 139.704 172.852 139.704 170.938C139.704 169.023 140.649 167.93 142.087 167.93C143.524 167.93 144.462 169.023 144.462 170.938C144.462 172.852 143.524 173.945 142.087 173.945ZM147.38 175H148.739V169.938C148.739 168.789 149.427 168.031 150.481 168.031C150.809 168.031 151.098 168.07 151.208 168.109V166.789C151.098 166.773 150.895 166.734 150.661 166.734C149.708 166.734 148.958 167.305 148.692 168.203H148.661V166.875H147.38V175ZM155.918 175H157.278V170.219C157.278 168.844 158.114 167.938 159.395 167.938C160.645 167.938 161.262 168.656 161.262 169.969V175H162.622V169.727C162.622 167.883 161.59 166.734 159.809 166.734C158.551 166.734 157.684 167.297 157.231 168.172H157.2V166.875H155.918V175ZM167.883 175.141C170.125 175.141 171.641 173.523 171.641 170.938C171.641 168.344 170.125 166.734 167.883 166.734C165.633 166.734 164.117 168.344 164.117 170.938C164.117 173.523 165.633 175.141 167.883 175.141ZM167.883 173.945C166.446 173.945 165.5 172.852 165.5 170.938C165.5 169.023 166.446 167.93 167.883 167.93C169.321 167.93 170.258 169.023 170.258 170.938C170.258 172.852 169.321 173.945 167.883 173.945ZM183.512 166.875H182.168L180.543 173.484H180.512L178.668 166.875H177.356L175.52 173.484H175.488L173.863 166.875H172.512L174.785 175H176.168L177.996 168.711H178.027L179.863 175H181.246L183.512 166.875ZM185 175.078C185.5 175.078 185.891 174.688 185.891 174.188C185.891 173.688 185.5 173.297 185 173.297C184.5 173.297 184.109 173.688 184.109 174.188C184.109 174.688 184.5 175.078 185 175.078Z" fill="#6B7280"/>
</svg>
